<?xml version="1.0" standalone="no"?>
<!DOCTYPE svg PUBLIC "-//W3C//DTD SVG 1.1//EN" "http://www.w3.org/Graphics/SVG/1.1/DTD/svg11.dtd" >
<svg>
<metadata>
Created by FontForge 20120731 at Sun Jun 12 09:41:07 2016
 By ,,,
Copyright (c) 2013 by Nico Inosanto. All rights reserved.
</metadata>
<defs>
<font id="Radikal" horiz-adv-x="575" >
  <font-face 
    font-family="Radikal"
    font-weight="400"
    font-stretch="normal"
    units-per-em="1000"
    panose-1="0 0 0 0 0 0 0 0 0 0"
    ascent="750"
    descent="-250"
    x-height="502"
    cap-height="735"
    bbox="-162 -297 1240 1075"
    underline-thickness="50"
    underline-position="-50"
    unicode-range="U+0020-FB01"
  />
<missing-glyph horiz-adv-x="592" 
d="M63 699h466v-699h-466v699zM458 650h-326l163 -259zM480 595l-158 -249l158 -250v499zM295 300l-160 -250h318zM112 590v-489l154 245z" />
    <glyph glyph-name="fi" unicode="fi" horiz-adv-x="610" 
d="M281 760q52 0 88 -21l-28 -82q-21 16 -56 16q-36 0 -57.5 -25.5t-21.5 -67.5v-78h131v-84h-131v-418h-98v418h-90v84h90v75q0 80 47.5 131.5t125.5 51.5zM532 502v-502h-98v502h98zM484 728q27 0 45.5 -18.5t18.5 -45.5q0 -28 -18.5 -46t-45.5 -18q-28 0 -46 18t-18 46
q0 27 18 45.5t46 18.5z" />
    <glyph glyph-name="f_j" unicode="fj" horiz-adv-x="610" 
d="M281 760q52 0 88 -21l-28 -82q-21 16 -56 16q-36 0 -57.5 -25.5t-21.5 -67.5v-78h131v-84h-131v-418h-98v418h-90v84h90v75q0 80 47.5 131.5t125.5 51.5zM532 502v-559q0 -79 -52 -131t-133 -52q-92 0 -152 62l64 66q37 -41 86 -41q40 0 64.5 24.5t24.5 64.5v566h98z
M484 728q27 0 45.5 -18.5t18.5 -45.5q0 -28 -18.5 -46t-45.5 -18q-28 0 -46 18t-18 46q0 27 18 45.5t46 18.5z" />
    <glyph glyph-name=".notdef" horiz-adv-x="592" 
d="M63 699h466v-699h-466v699zM458 650h-326l163 -259zM480 595l-158 -249l158 -250v499zM295 300l-160 -250h318zM112 590v-489l154 245z" />
    <glyph glyph-name=".null" horiz-adv-x="0" 
 />
    <glyph glyph-name="nonmarkingreturn" horiz-adv-x="333" 
 />
    <glyph glyph-name="space" unicode=" " horiz-adv-x="236" 
 />
    <glyph glyph-name="exclam" unicode="!" horiz-adv-x="262" 
d="M180 735v-530h-98v530h98zM131 115q28 0 46.5 -18.5t18.5 -45.5q0 -28 -18.5 -46t-46.5 -18q-27 0 -45 18t-18 46q0 27 18 45.5t45 18.5z" />
    <glyph glyph-name="quotedbl" unicode="&#x22;" horiz-adv-x="317" 
d="M50 750l92 -17l-44 -263h-39zM208 750l92 -17l-44 -263h-39z" />
    <glyph glyph-name="numbersign" unicode="#" horiz-adv-x="707" 
d="M593 735l-36 -201h132v-80h-146l-32 -179h131v-81h-144l-34 -194h-98l34 194h-168l-34 -194h-99l35 194h-133v81h147l32 179h-132v80h145l36 201h97l-35 -201h168l36 201h98zM446 454h-169l-31 -179h168z" />
    <glyph glyph-name="dollar" unicode="$" horiz-adv-x="581" 
d="M340 869v-124q107 -14 184 -75l-54 -84q-82 68 -186 68q-63 0 -100.5 -29t-37.5 -86q0 -48 35.5 -72t130.5 -44q133 -29 189 -78.5t56 -134.5q0 -90 -58.5 -149.5t-158.5 -70.5v-119h-83v118q-137 10 -231 92l57 85q39 -39 97 -62t118 -23q71 0 114 31.5t43 89.5
q0 48 -39 75t-133 47q-132 29 -185.5 78t-53.5 133q0 90 57.5 147t155.5 65v122h83z" />
    <glyph glyph-name="percent" unicode="%" horiz-adv-x="872" 
d="M724 735l-479 -735h-97l479 735h97zM208 748q77 0 127.5 -53t50.5 -133q0 -79 -50.5 -131t-127.5 -52q-78 0 -128.5 51.5t-50.5 131.5t50.5 133t128.5 53zM208 675q-45 0 -74 -32t-29 -81q0 -48 29 -79.5t74 -31.5q44 0 73 31.5t29 79.5q0 49 -29 81t-73 32zM665 356
q77 0 128 -52.5t51 -132.5t-50.5 -131.5t-128.5 -51.5t-128.5 51.5t-50.5 131.5t50.5 132.5t128.5 52.5zM665 284q-45 0 -74 -32t-29 -81q0 -48 29 -79.5t74 -31.5q44 0 73.5 31.5t29.5 79.5q0 49 -29.5 81t-73.5 32z" />
    <glyph glyph-name="ampersand" unicode="&#x26;" horiz-adv-x="686" 
d="M288 748q79 0 127 -44t48 -115q0 -32 -10 -57.5t-33 -48.5t-42 -37.5t-55 -37.5l16 -18l140 -156l91 111h116l-145 -180l149 -165h-127l-83 93q-101 -103 -224 -103q-96 0 -161.5 55t-65.5 148q0 72 37.5 119t125.5 103q-78 92 -78 172q0 72 47.5 116.5t126.5 44.5z
M272 328q-5 5 -15 16.5t-11 12.5q-63 -43 -90 -75.5t-27 -82.5q0 -56 37.5 -89t94.5 -33q80 0 158 85zM207 583q0 -53 61 -119q57 35 79.5 60t22.5 61q0 38 -22 59.5t-59 21.5t-59.5 -22t-22.5 -61z" />
    <glyph glyph-name="quotesingle" unicode="'" horiz-adv-x="159" 
d="M50 750l92 -17l-44 -263h-39z" />
    <glyph glyph-name="parenleft" unicode="(" horiz-adv-x="291" 
d="M197 697l74 -54q-59 -72 -95 -154.5t-36 -199.5t36 -199.5t95 -154.5l-74 -54q-150 180 -150 408q0 226 150 408z" />
    <glyph glyph-name="parenright" unicode=")" horiz-adv-x="291" 
d="M94 697q150 -180 150 -408q0 -231 -150 -408l-74 54q60 71 95.5 154t35.5 200t-35.5 200t-95.5 154z" />
    <glyph glyph-name="asterisk" unicode="*" horiz-adv-x="412" 
d="M242 734l-4 -133l125 45l23 -67l-128 -38l81 -105l-58 -41l-74 105l-75 -105l-57 41l81 105l-129 38l22 67l126 -45l-4 133h71z" />
    <glyph glyph-name="plus" unicode="+" horiz-adv-x="486" 
d="M287 553v-158h159v-90h-159v-159h-90v159h-158v90h158v158h90z" />
    <glyph glyph-name="comma" unicode="," horiz-adv-x="185" 
d="M75 127q30 0 49.5 -20t19.5 -50q0 -21 -12 -40l-78 -159h-4v264q13 5 25 5z" />
    <glyph glyph-name="hyphen" unicode="-" horiz-adv-x="437" 
d="M396 304v-91h-356v91h356z" />
    <glyph glyph-name="period" unicode="." horiz-adv-x="214" 
d="M107 128q30 0 49.5 -19t19.5 -50q0 -30 -19.5 -49.5t-49.5 -19.5t-49.5 19.5t-19.5 49.5t19.5 49.5t49.5 19.5z" />
    <glyph glyph-name="slash" unicode="/" horiz-adv-x="474" 
d="M469 734l-363 -734h-101l365 734h99z" />
    <glyph glyph-name="zero" unicode="0" horiz-adv-x="589" 
d="M295 748q122 0 189.5 -102t67.5 -278q0 -177 -67.5 -279t-189.5 -102t-190 102t-68 279q0 176 68 278t190 102zM295 659q-78 0 -117.5 -77.5t-39.5 -213.5q0 -137 39.5 -214.5t117.5 -77.5q77 0 116.5 78t39.5 214t-39.5 213.5t-116.5 77.5z" />
    <glyph glyph-name="one" unicode="1" horiz-adv-x="374" 
d="M294 748v-748h-99v565l-131 -77l-44 87l270 173h4z" />
    <glyph glyph-name="two" unicode="2" horiz-adv-x="530" 
d="M264 748q100 0 162 -61t62 -158q0 -66 -21 -117.5t-67 -110.5l-164 -211h261v-90h-451v6l272 348q40 50 55 88.5t15 88.5q0 59 -34.5 93t-89.5 34q-107 0 -131 -123l-90 21q38 192 221 192z" />
    <glyph glyph-name="three" unicode="3" horiz-adv-x="524" 
d="M264 748q96 0 156 -58.5t60 -150.5q0 -111 -99 -156q57 -22 89.5 -66.5t32.5 -106.5q0 -100 -63 -161.5t-168 -61.5q-181 0 -238 182l90 24q18 -57 53 -86.5t95 -29.5q59 0 95.5 36.5t36.5 96.5q0 56 -40 92.5t-103 36.5h-80v87h82q49 0 83.5 30t34.5 84t-33 86t-85 32
q-97 0 -130 -105l-87 37q56 158 218 158z" />
    <glyph glyph-name="four" unicode="4" horiz-adv-x="557" 
d="M437 741v-513h99v-90h-99v-138h-99v138h-331v4l425 599h5zM339 457l-163 -230h163v230z" />
    <glyph glyph-name="five" unicode="5" horiz-adv-x="538" 
d="M463 735v-90h-285v-212q44 22 97 22q104 0 169 -63.5t65 -172.5q0 -100 -63.5 -166t-169.5 -66q-175 0 -235 159l85 40q35 -109 144 -109q61 0 100 41.5t39 104.5q0 64 -38 103t-100 39q-74 0 -130 -45l-63 30v385h385z" />
    <glyph glyph-name="six" unicode="6" horiz-adv-x="547" 
d="M272 471q101 0 171.5 -69.5t70.5 -173.5t-70.5 -172.5t-171.5 -68.5q-100 0 -170 68.5t-70 172.5q0 89 52 154l231 353h112l-173 -265q6 1 18 1zM272 382q-59 0 -99 -43.5t-40 -110.5t40 -109.5t99 -42.5q60 0 101 42.5t41 109.5t-41 110.5t-101 43.5z" />
    <glyph glyph-name="seven" unicode="7" horiz-adv-x="538" 
d="M524 735v-6l-370 -729h-108l331 644h-350v91h497z" />
    <glyph glyph-name="eight" unicode="8" horiz-adv-x="547" 
d="M270 748q88 0 149 -56t61 -142q0 -52 -24.5 -94t-66.5 -66q56 -26 89.5 -74.5t33.5 -107.5q0 -95 -70.5 -158t-171.5 -63t-171 63t-70 158q0 60 33 108.5t88 72.5q-41 24 -65.5 66t-24.5 95q0 86 61 142t149 56zM270 339q-59 0 -99.5 -38t-40.5 -95q0 -56 40.5 -93.5
t99.5 -37.5t100 37.5t41 93.5q0 57 -41 95t-100 38zM270 660q-49 0 -83 -33t-34 -81q0 -51 34 -85t83 -34t83 34t34 85q0 48 -34 81t-83 33z" />
    <glyph glyph-name="nine" unicode="9" horiz-adv-x="547" 
d="M274 748q100 0 170 -68.5t70 -172.5q0 -82 -44 -143l-238 -364h-113l173 264h-18q-101 0 -171.5 69.5t-70.5 173.5t70.5 172.5t171.5 68.5zM274 659q-60 0 -100.5 -42.5t-40.5 -109.5t40.5 -110.5t100.5 -43.5q59 0 99.5 43.5t40.5 110.5t-40.5 109.5t-99.5 42.5z" />
    <glyph glyph-name="colon" unicode=":" horiz-adv-x="207" 
d="M104 122q29 0 47.5 -18.5t18.5 -47.5q0 -28 -19 -47t-47 -19t-47 19t-19 47t19 47t47 19zM104 512q28 0 47 -19t19 -47t-19 -47t-47 -19t-47 19t-19 47t19 47t47 19z" />
    <glyph glyph-name="semicolon" unicode=";" horiz-adv-x="207" 
d="M82 122q30 0 49.5 -19.5t19.5 -49.5q0 -20 -12 -41l-78 -159h-4v265q11 4 25 4zM104 512q28 0 47 -19t19 -47t-19 -47t-47 -19t-47 19t-19 47t19 47t47 19z" />
    <glyph glyph-name="less" unicode="&#x3c;" horiz-adv-x="354" 
d="M334 538l-193 -192l193 -192h-124l-190 190v4l190 190h124z" />
    <glyph glyph-name="equal" unicode="=" horiz-adv-x="486" 
d="M446 275v-90h-407v90h407zM446 514v-91h-407v91h407z" />
    <glyph glyph-name="greater" unicode="&#x3e;" horiz-adv-x="354" 
d="M144 538l190 -190v-4l-190 -190h-124l192 192l-192 192h124z" />
    <glyph glyph-name="question" unicode="?" horiz-adv-x="491" 
d="M238 748q95 0 155.5 -57t60.5 -144q0 -48 -17 -84.5t-41.5 -59t-49 -43t-41.5 -47t-17 -59.5v-49h-99v61q0 41 16.5 73.5t40.5 54t48 42t40.5 48.5t16.5 62q0 52 -32 82t-82 30q-100 0 -120 -104l-97 17q38 177 218 177zM239 115q28 0 46 -18.5t18 -45.5q0 -28 -18 -46
t-46 -18t-46 18t-18 46q0 27 18 45.5t46 18.5z" />
    <glyph glyph-name="at" unicode="@" horiz-adv-x="859" 
d="M429 637q177 0 288 -108.5t111 -281.5q0 -102 -45.5 -163t-125.5 -61q-77 0 -102 60l-2 5q-52 -65 -145 -65q-84 0 -137 61.5t-53 155.5q0 95 53 156.5t137 61.5q93 0 138 -57l3 49h76v-310q0 -44 41 -44q39 0 61 41.5t22 109.5q0 138 -88.5 226.5t-231.5 88.5
q-140 0 -229.5 -90.5t-89.5 -229.5q0 -140 88 -229.5t226 -89.5q69 0 129 24l23 -71q-70 -28 -152 -28q-173 0 -283 110.5t-110 283.5q0 172 111.5 283.5t286.5 111.5zM427 385q-55 0 -90 -40t-35 -105t35 -104.5t90 -39.5q70 0 115 65v159q-47 65 -115 65z" />
    <glyph glyph-name="A" unicode="A" horiz-adv-x="698" 
d="M349 523l-127 -284h254zM351 748l338 -748h-109l-66 150h-330l-66 -150h-109l338 748h4z" />
    <glyph glyph-name="B" unicode="B" horiz-adv-x="663" 
d="M342 735q111 0 170 -51.5t59 -142.5q0 -56 -25.5 -95t-61.5 -57q148 -39 148 -183q0 -96 -66.5 -151t-174.5 -55h-309v735h260zM369 329h-186v-236h197q70 0 109.5 30.5t39.5 87.5q0 118 -160 118zM330 642h-147v-222h156q60 0 95 31t35 80q0 53 -35.5 82t-103.5 29z" />
    <glyph glyph-name="C" unicode="C" horiz-adv-x="680" 
d="M403 748q155 0 260 -107l-65 -74q-80 87 -195 87q-118 0 -192.5 -81t-74.5 -206t74.5 -205.5t192.5 -80.5q120 0 200 92l64 -76q-101 -110 -264 -110q-161 0 -265.5 108t-104.5 272q0 165 104.5 273t265.5 108z" />
    <glyph glyph-name="D" unicode="D" horiz-adv-x="732" 
d="M304 735q186 0 290.5 -96.5t104.5 -270.5t-104 -271t-291 -97h-222v735h222zM301 640h-117v-546h117q142 0 218.5 71.5t76.5 202.5q0 129 -77 200.5t-218 71.5z" />
    <glyph glyph-name="E" unicode="E" horiz-adv-x="577" 
d="M537 735v-94h-353v-223h310v-91h-310v-233h361v-94h-463v735h455z" />
    <glyph glyph-name="F" unicode="F" horiz-adv-x="539" 
d="M522 735v-94h-338v-233h286v-92h-286v-316h-102v735h440z" />
    <glyph glyph-name="G" unicode="G" horiz-adv-x="740" 
d="M403 748q155 0 260 -107l-65 -74q-80 87 -195 87q-118 0 -192.5 -81t-74.5 -206t77 -205.5t200 -80.5q95 0 166 52v165h-187v89h289v-304q-104 -96 -268 -96q-166 0 -273 108t-107 272q0 165 104.5 273t265.5 108z" />
    <glyph glyph-name="H" unicode="H" horiz-adv-x="733" 
d="M651 735v-735h-102v329h-365v-329h-102v735h102v-312h365v312h102z" />
    <glyph glyph-name="I" unicode="I" horiz-adv-x="266" 
d="M184 735v-735h-102v735h102z" />
    <glyph glyph-name="J" unicode="J" horiz-adv-x="540" 
d="M469 735v-525q0 -101 -61.5 -162t-161.5 -61q-95 0 -160.5 63.5t-65.5 175.5h100q0 -68 33 -106.5t90 -38.5q58 0 91 35.5t33 98.5v520h102z" />
    <glyph glyph-name="K" unicode="K" horiz-adv-x="667" 
d="M605 735l-211 -354l264 -381h-123l-199 289l-175 -289h-79v735h102v-529l301 529h120z" />
    <glyph glyph-name="L" unicode="L" horiz-adv-x="544" 
d="M184 735v-644h350v-91h-452v735h102z" />
    <glyph glyph-name="M" unicode="M" horiz-adv-x="873" 
d="M790 748v-748h-102v405l-248 -411h-7l-249 411v-405h-102v748h4l350 -571l350 571h4z" />
    <glyph glyph-name="N" unicode="N" horiz-adv-x="729" 
d="M647 735v-748h-4l-459 507v-494h-102v748h4l459 -506v493h102z" />
    <glyph glyph-name="O" unicode="O" horiz-adv-x="806" 
d="M403 748q160 0 265.5 -108.5t105.5 -272.5q0 -165 -105.5 -272.5t-265.5 -107.5q-161 0 -265.5 107.5t-104.5 272.5q0 164 105 272.5t265 108.5zM403 654q-117 0 -192 -81t-75 -206t75 -205.5t192 -80.5t192 80.5t75 205.5t-75 206t-192 81z" />
    <glyph glyph-name="P" unicode="P" horiz-adv-x="618" 
d="M337 735q113 0 184.5 -61.5t71.5 -171.5q0 -109 -71.5 -170.5t-184.5 -61.5h-153v-270h-102v735h255zM328 645h-144v-285h144q75 0 118 36.5t43 105.5t-43.5 106t-117.5 37z" />
    <glyph glyph-name="Q" unicode="Q" horiz-adv-x="806" 
d="M403 748q160 0 265.5 -108.5t105.5 -272.5q0 -177 -118 -285l151 -174h-125l-104 120q-80 -41 -175 -41q-161 0 -265.5 107.5t-104.5 272.5q0 164 105 272.5t265 108.5zM403 654q-117 0 -192 -81t-75 -206t75 -205.5t192 -80.5q58 0 110 22l-113 132l72 62l119 -139
q79 81 79 209q0 125 -75 206t-192 81z" />
    <glyph glyph-name="R" unicode="R" horiz-adv-x="632" 
d="M324 735q113 0 186 -60.5t73 -167.5q0 -78 -40 -132t-109 -79l184 -296h-120l-172 279h-144v-279h-102v735h244zM315 645h-133v-276h133q77 0 121 35.5t44 102.5q0 66 -44.5 102t-120.5 36z" />
    <glyph glyph-name="S" unicode="S" horiz-adv-x="585" 
d="M285 748q141 0 239 -78l-54 -84q-82 68 -186 68q-63 0 -100.5 -29t-37.5 -86q0 -48 35.5 -72t130.5 -44q133 -29 189 -78.5t56 -134.5q0 -100 -71 -161.5t-191 -61.5q-161 0 -269 94l57 85q39 -39 97 -62t118 -23q71 0 114 31.5t43 89.5q0 48 -39 75t-133 47
q-132 29 -185.5 78t-53.5 133q0 97 66 155t175 58z" />
    <glyph glyph-name="T" unicode="T" horiz-adv-x="649" 
d="M633 735v-91h-258v-644h-102v644h-257v91h617z" />
    <glyph glyph-name="U" unicode="U" horiz-adv-x="689" 
d="M616 735v-476q0 -126 -70 -199t-201 -73q-132 0 -202 73t-70 199v476h102v-470q0 -85 43.5 -134.5t126.5 -49.5q82 0 125.5 49.5t43.5 134.5v470h102z" />
    <glyph glyph-name="V" unicode="V" horiz-adv-x="715" 
d="M705 735l-345 -747h-4l-346 747h111l237 -522l237 522h110z" />
    <glyph glyph-name="W" unicode="W" horiz-adv-x="978" 
d="M968 735l-288 -747h-4l-187 479l-187 -479h-4l-288 747h113l177 -478l187 478h4l187 -478l177 478h113z" />
    <glyph glyph-name="X" unicode="X" horiz-adv-x="670" 
d="M646 735l-240 -361l250 -374h-118l-203 298l-203 -298h-118l250 374l-240 361h119l192 -285l192 285h119z" />
    <glyph glyph-name="Y" unicode="Y" horiz-adv-x="660" 
d="M653 734l-272 -423v-311h-102v309l-272 425h119l204 -322l203 322h120z" />
    <glyph glyph-name="Z" unicode="Z" horiz-adv-x="580" 
d="M542 735v-4l-355 -638h366v-93h-528v4l358 638h-342v93h501z" />
    <glyph glyph-name="bracketleft" unicode="[" horiz-adv-x="308" 
d="M283 699v-80h-134v-660h134v-80h-228v820h228z" />
    <glyph glyph-name="backslash" unicode="\" horiz-adv-x="474" 
d="M105 734l364 -734h-100l-364 734h100z" />
    <glyph glyph-name="bracketright" unicode="]" horiz-adv-x="314" 
d="M259 699v-820h-234v80h139v660h-139v80h234z" />
    <glyph glyph-name="asciicircum" unicode="^" horiz-adv-x="533" 
d="M266 760l247 -298h-90l-157 189l-155 -189h-91z" />
    <glyph glyph-name="underscore" unicode="_" horiz-adv-x="800" 
d="M760 0v-90h-720v90h720z" />
    <glyph glyph-name="grave" unicode="`" horiz-adv-x="295" 
d="M142 707l138 -131h-99l-155 131h116z" />
    <glyph glyph-name="a" unicode="a" horiz-adv-x="593" 
d="M262 512q107 0 161 -71l4 61h89v-502h-89l-4 61q-54 -71 -161 -71q-103 0 -167.5 73.5t-64.5 187.5t64.5 187.5t167.5 73.5zM280 425q-66 0 -108.5 -48t-42.5 -126t42.5 -126t108.5 -48q86 0 138 85v178q-52 85 -138 85z" />
    <glyph glyph-name="b" unicode="b" horiz-adv-x="593" 
d="M175 760v-312q55 64 156 64q103 0 167.5 -73.5t64.5 -187.5t-64.5 -187.5t-167.5 -73.5q-107 0 -161 71l-4 -61h-89v760h98zM313 425q-86 0 -138 -85v-178q52 -85 138 -85q66 0 108.5 48t42.5 126t-42.5 126t-108.5 48z" />
    <glyph glyph-name="c" unicode="c" horiz-adv-x="506" 
d="M283 512q130 0 201 -108l-73 -56q-48 78 -127 78q-74 0 -114.5 -48.5t-40.5 -126.5q0 -77 41 -126t115 -49q81 0 129 78l73 -56q-71 -108 -202 -108q-116 0 -185.5 73t-69.5 188t69 188t184 73z" />
    <glyph glyph-name="d" unicode="d" horiz-adv-x="593" 
d="M516 760v-760h-89l-4 61q-54 -71 -161 -71q-103 0 -167.5 73.5t-64.5 187.5t64.5 187.5t167.5 73.5q101 0 156 -64v312h98zM280 425q-66 0 -108.5 -48t-42.5 -126t42.5 -126t108.5 -48q86 0 138 85v178q-52 85 -138 85z" />
    <glyph glyph-name="e" unicode="e" horiz-adv-x="530" 
d="M270 512q108 0 167.5 -73t59.5 -184v-39h-368q2 -69 41.5 -105.5t110.5 -36.5q90 0 136 64l68 -57q-74 -91 -204 -91q-115 0 -183 72.5t-68 187.5q0 114 67.5 188t172.5 74zM270 428q-61 0 -99 -36t-42 -96h271q-2 60 -36 96t-94 36z" />
    <glyph glyph-name="f" unicode="f" horiz-adv-x="358" 
d="M281 760q67 0 110 -35l-38 -78q-26 26 -67 26q-37 0 -58.5 -25.5t-21.5 -67.5v-78h131v-84h-131v-418h-98v418h-90v84h90v73q0 82 47 133.5t126 51.5z" />
    <glyph glyph-name="g" unicode="g" horiz-adv-x="594" 
d="M262 512q107 0 161 -71l4 61h89v-489q0 -117 -70 -185t-187 -68q-143 0 -231 105l65 64q68 -82 165 -82q73 0 116.5 44.5t43.5 119.5v43q-55 -64 -156 -64q-103 0 -167.5 73.5t-64.5 187.5t64.5 187.5t167.5 73.5zM280 425q-66 0 -108.5 -48t-42.5 -126t42.5 -126
t108.5 -48q86 0 138 85v178q-52 85 -138 85z" />
    <glyph glyph-name="h" unicode="h" horiz-adv-x="583" 
d="M175 760v-313q60 65 154 65q89 0 139.5 -58.5t50.5 -156.5v-297h-98v291q0 57 -31.5 92.5t-84.5 35.5q-74 0 -130 -80v-339h-98v760h98z" />
    <glyph glyph-name="i" unicode="i" horiz-adv-x="253" 
d="M175 502v-502h-98v502h98zM127 728q27 0 45.5 -18.5t18.5 -45.5q0 -28 -18.5 -46t-45.5 -18q-28 0 -46 18t-18 46q0 27 18 45.5t46 18.5z" />
    <glyph glyph-name="j" unicode="j" horiz-adv-x="253" 
d="M175 502v-559q0 -79 -52 -131t-133 -52q-92 0 -152 62l64 66q37 -41 86 -41q40 0 64.5 24.5t24.5 64.5v566h98zM127 728q27 0 45.5 -18.5t18.5 -45.5q0 -28 -18.5 -46t-45.5 -18q-28 0 -46 18t-18 46q0 27 18 45.5t46 18.5z" />
    <glyph glyph-name="k" unicode="k" horiz-adv-x="541" 
d="M175 760v-580l217 322h117l-154 -220l179 -282h-115l-126 201l-137 -201h-79v760h98z" />
    <glyph glyph-name="l" unicode="l" horiz-adv-x="253" 
d="M175 760v-760h-98v760h98z" />
    <glyph glyph-name="m" unicode="m" horiz-adv-x="908" 
d="M662 512q85 0 133.5 -58.5t48.5 -156.5v-297h-99v291q0 57 -29.5 92.5t-79.5 35.5q-71 0 -129 -83q2 -22 2 -31v-305h-98v291q0 57 -29.5 92.5t-79.5 35.5q-68 0 -127 -79v-340h-98v502h89l4 -61q56 71 157 71q109 0 155 -92q66 92 180 92z" />
    <glyph glyph-name="n" unicode="n" horiz-adv-x="583" 
d="M329 512q89 0 139.5 -58.5t50.5 -156.5v-297h-98v291q0 57 -31.5 92.5t-84.5 35.5q-74 0 -130 -80v-339h-98v502h89l4 -61q56 71 159 71z" />
    <glyph glyph-name="o" unicode="o" 
d="M287 512q112 0 185 -74.5t73 -187.5t-73 -186.5t-185 -73.5t-184.5 73.5t-72.5 186.5t72.5 187.5t184.5 74.5zM287 425q-69 0 -113.5 -49.5t-44.5 -125.5q0 -75 44.5 -124t113.5 -49t114 49t45 124q0 76 -45 125.5t-114 49.5z" />
    <glyph glyph-name="p" unicode="p" horiz-adv-x="593" 
d="M331 512q103 0 167.5 -73.5t64.5 -187.5t-64.5 -187.5t-167.5 -73.5q-101 0 -156 64v-284h-98v732h89l4 -61q54 71 161 71zM313 425q-86 0 -138 -85v-178q52 -85 138 -85q66 0 108.5 48t42.5 126t-42.5 126t-108.5 48z" />
    <glyph glyph-name="q" unicode="q" horiz-adv-x="593" 
d="M262 512q107 0 161 -71l4 61h89v-732h-98v284q-55 -64 -156 -64q-103 0 -167.5 73.5t-64.5 187.5t64.5 187.5t167.5 73.5zM280 425q-66 0 -108.5 -48t-42.5 -126t42.5 -126t108.5 -48q86 0 138 85v178q-52 85 -138 85z" />
    <glyph glyph-name="r" unicode="r" horiz-adv-x="334" 
d="M320 512v-98h-9q-78 0 -136 -84v-330h-98v502h89l5 -68q49 78 149 78z" />
    <glyph glyph-name="s" unicode="s" horiz-adv-x="457" 
d="M239 512q100 0 167 -55l-42 -76q-57 44 -125 44q-92 0 -92 -58q0 -29 21.5 -41.5t83.5 -27.5q88 -21 129 -58t41 -94q0 -71 -54.5 -113.5t-146.5 -42.5q-117 0 -191 61l45 78q60 -52 147 -52q101 0 101 63q0 30 -23.5 45t-83.5 29q-89 20 -128 54t-39 93q0 71 51 111
t139 40z" />
    <glyph glyph-name="t" unicode="t" horiz-adv-x="398" 
d="M208 672v-170h158v-84h-158v-249q0 -43 23.5 -66.5t62.5 -23.5q45 0 72 16l28 -77q-45 -28 -108 -28q-82 0 -129 46t-47 132v250h-98v84h98v170h98z" />
    <glyph glyph-name="u" unicode="u" 
d="M498 502v-502h-89l-4 61q-56 -71 -161 -71q-85 0 -132 57.5t-47 155.5v299h98v-294q0 -56 28.5 -90.5t77.5 -34.5q43 0 73.5 21t57.5 59v339h98z" />
    <glyph glyph-name="v" unicode="v" horiz-adv-x="542" 
d="M531 502l-258 -512h-4l-259 512h110l151 -306l151 306h109z" />
    <glyph glyph-name="w" unicode="w" horiz-adv-x="764" 
d="M753 502l-223 -512h-4l-144 298l-145 -298h-4l-223 512h110l122 -291l138 291h4l138 -291l122 291h109z" />
    <glyph glyph-name="x" unicode="x" horiz-adv-x="500" 
d="M479 502l-164 -247l171 -255h-116l-122 183l-121 -183h-116l171 255l-164 247h115l115 -177l116 177h115z" />
    <glyph glyph-name="y" unicode="y" horiz-adv-x="552" 
d="M537 502l-367 -732h-112l165 312l-207 420h109l151 -310l151 310h110z" />
    <glyph glyph-name="z" unicode="z" horiz-adv-x="453" 
d="M429 502v-4l-250 -414h249v-84h-405v4l249 414h-234v84h391z" />
    <glyph glyph-name="braceleft" unicode="{" horiz-adv-x="335" 
d="M310 699v-80q-57 0 -88.5 -33.5t-19.5 -101.5l9 -65q13 -50 -4 -83t-53 -47q36 -14 53 -47t4 -83l-9 -65q-12 -68 19.5 -101.5t88.5 -33.5v-80q-114 0 -171.5 61t-28.5 172l9 63q11 44 -15.5 72.5t-77.5 39.5v4q51 11 77.5 39.5t15.5 72.5l-9 63q-29 111 28.5 172
t171.5 61z" />
    <glyph glyph-name="bar" unicode="|" horiz-adv-x="236" 
d="M165 699v-820h-94v820h94z" />
    <glyph glyph-name="braceright" unicode="}" horiz-adv-x="335" 
d="M25 699q114 0 172 -61t29 -172l-10 -63q-11 -44 15.5 -72.5t77.5 -39.5v-4q-51 -11 -77.5 -39.5t-15.5 -72.5l10 -63q29 -111 -29 -172t-172 -61v80q57 0 88.5 33.5t19.5 101.5l-9 65q-13 50 4 83t53 47q-36 14 -53 47t-4 83l9 65q12 68 -19.5 101.5t-88.5 33.5v80z" />
    <glyph glyph-name="asciitilde" unicode="~" horiz-adv-x="588" 
d="M190 441q35 0 65.5 -13.5t49 -30t43.5 -30t50 -13.5q74 0 105 79l59 -45q-23 -58 -65.5 -91.5t-98.5 -33.5q-36 0 -66 13.5t-47 30t-42 30t-53 13.5q-75 0 -105 -79l-59 45q23 58 65.5 91.5t98.5 33.5z" />
    <glyph glyph-name="exclamdown" unicode="&#xa1;" horiz-adv-x="262" 
d="M83 -237v530h98v-530h-98zM132 383q-28 0 -46.5 18.5t-18.5 45.5q0 28 18.5 46t46.5 18q27 0 45 -18t18 -46q0 -27 -18 -45.5t-45 -18.5z" />
    <glyph glyph-name="cent" unicode="&#xa2;" horiz-adv-x="509" 
d="M325 639v-130q100 -16 159 -105l-73 -56q-48 78 -127 78q-74 0 -114.5 -48.5t-40.5 -126.5q0 -77 41 -126t115 -49q81 0 129 78l73 -56q-59 -90 -162 -105v-139h-83v139q-98 13 -155 83.5t-57 174.5t57 174.5t155 83.5v130h83z" />
    <glyph glyph-name="sterling" unicode="&#xa3;" horiz-adv-x="580" 
d="M290 748q79 0 132.5 -43.5t73.5 -105.5l-95 -28q-12 41 -41 65t-73 24q-58 0 -88 -37.5t-30 -101.5q0 -40 18 -112h179v-79h-160q8 -38 8 -65q0 -88 -51 -177h179q54 0 79.5 25.5t25.5 85.5h97q0 -199 -184 -199h-344v4q2 3 15 24.5t16 27t15 27t16 31t13 31t11.5 34.5
t7 34t4.5 38t-1.5 38t-6.5 41h-84v79h65q-16 59 -16 105q0 109 59 171.5t160 62.5z" />
    <glyph glyph-name="currency" unicode="&#xa4;" horiz-adv-x="652" 
d="M552 555l63 -63l-121 -120q31 -48 31 -109q0 -63 -31 -109l121 -120l-63 -63l-122 121q-46 -30 -104 -30t-105 30l-121 -121l-63 63l121 120q-32 48 -32 109q0 59 32 109l-121 120l63 63l121 -121q45 31 105 31q58 0 105 -31zM326 390q-51 0 -84 -36.5t-33 -90.5t33 -90
t84 -36q50 0 83 36t33 90t-33 90.5t-83 36.5z" />
    <glyph glyph-name="yen" unicode="&#xa5;" horiz-adv-x="658" 
d="M652 734l-233 -359h126v-74h-165v-84h165v-74h-165v-143h-102v143h-164v74h164v84h-164v74h124l-232 359h119l204 -322l203 322h120z" />
    <glyph glyph-name="brokenbar" unicode="&#xa6;" horiz-adv-x="236" 
d="M165 699v-308h-94v308h94zM165 187v-308h-94v308h94z" />
    <glyph glyph-name="section" unicode="&#xa7;" horiz-adv-x="429" 
d="M216 421q-43 0 -69.5 -26.5t-26.5 -67.5t26.5 -67t69.5 -26q42 0 69.5 26t27.5 67t-27.5 67.5t-69.5 26.5zM230 748q90 0 146 -58l-55 -61q-36 38 -91 38q-43 0 -68.5 -21.5t-25.5 -57.5q0 -58 66 -79q12 -4 36.5 -8.5t36.5 -8.5q56 -17 90.5 -62t34.5 -103
q0 -47 -23 -84.5t-63 -56.5q71 -36 71 -113q0 -71 -54 -119t-141 -48q-103 0 -163 70l59 60q41 -49 105 -49q46 0 74 23t28 62q0 49 -59 72q-9 4 -19.5 6t-23 4t-20.5 4q-63 14 -101 60t-38 109q0 47 23 84t63 56q-74 38 -74 120q0 68 51 114.5t135 46.5z" />
    <glyph glyph-name="dieresis" unicode="&#xa8;" horiz-adv-x="320" 
d="M74 695q24 0 39.5 -15.5t15.5 -38.5t-15.5 -38.5t-39.5 -15.5q-23 0 -38.5 15.5t-15.5 38.5t15.5 38.5t38.5 15.5zM245 695q23 0 39 -15.5t16 -38.5t-16 -38.5t-39 -15.5t-38.5 15.5t-15.5 38.5t15.5 38.5t38.5 15.5z" />
    <glyph glyph-name="copyright" unicode="&#xa9;" horiz-adv-x="670" 
d="M346 642q73 0 120 -50l-40 -47q-31 34 -80 34q-48 0 -76.5 -30t-28.5 -80q0 -51 28.5 -80.5t76.5 -29.5q51 0 81 35l40 -47q-47 -51 -121 -51t-122.5 48.5t-48.5 124.5q0 74 48.5 123.5t122.5 49.5zM335 779q130 0 217 -89.5t87 -223.5q0 -135 -86.5 -223.5t-217.5 -88.5
q-132 0 -217.5 88t-85.5 224q0 134 86 223.5t217 89.5zM335 717q-103 0 -170 -72t-67 -179q0 -108 67 -179.5t170 -71.5t170 71.5t67 179.5q0 107 -67.5 179t-169.5 72z" />
    <glyph glyph-name="ordfeminine" unicode="&#xaa;" horiz-adv-x="430" 
d="M184 748q73 0 113 -48l3 41h73v-353h-73l-3 41q-40 -48 -113 -48q-69 0 -113.5 51.5t-44.5 131.5t44.5 132t113.5 52zM204 677q-43 0 -70 -31t-27 -82t27 -82t70 -31q53 0 88 52v123q-35 51 -88 51z" />
    <glyph glyph-name="guillemotleft" unicode="&#xab;" horiz-adv-x="489" 
d="M245 458l-135 -202l135 -202h-92l-138 200v4l138 200h92zM474 458l-136 -202l136 -202h-92l-138 200v4l138 200h92z" />
    <glyph glyph-name="logicalnot" unicode="&#xac;" horiz-adv-x="582" 
d="M545 434v-278h-70v209h-438v69h508z" />
    <glyph glyph-name="registered" unicode="&#xae;" horiz-adv-x="670" 
d="M335 779q130 0 217 -89.5t87 -223.5q0 -135 -86.5 -223.5t-217.5 -88.5q-132 0 -217.5 88t-85.5 224q0 134 86 223.5t217 89.5zM335 717q-103 0 -170 -72t-67 -179q0 -108 67 -179.5t170 -71.5t170 71.5t67 179.5q0 107 -67.5 179t-169.5 72zM215 638h125q52 0 87 -29
t35 -80q0 -71 -63 -100l79 -130h-76l-72 118h-49v-118h-66v339zM334 578h-53v-101h53q62 0 62 51q0 50 -62 50z" />
    <glyph glyph-name="macron" unicode="&#xaf;" horiz-adv-x="300" 
d="M280 665v-68h-260v68h260z" />
    <glyph glyph-name="degree" unicode="&#xb0;" horiz-adv-x="343" 
d="M173 747q60 0 100 -40t40 -100t-40 -99.5t-100 -39.5q-62 0 -102.5 39t-40.5 100q0 60 40.5 100t102.5 40zM173 683q-33 0 -54 -21.5t-21 -54.5q0 -32 21 -53.5t54 -21.5q31 0 52 21.5t21 53.5q0 33 -21 54.5t-52 21.5z" />
    <glyph glyph-name="plusminus" unicode="&#xb1;" horiz-adv-x="486" 
d="M287 656v-157h159v-91h-159v-158h-90v158h-158v91h158v157h90zM446 177v-90h-407v90h407z" />
    <glyph glyph-name="two.sups" unicode="&#xb2;" horiz-adv-x="345" 
d="M174 821q63 0 101.5 -36.5t38.5 -93.5q0 -58 -53 -124l-89 -107h146v-66h-273v4l154 207q40 48 40 87q0 29 -18 46t-47 17q-58 0 -70 -65l-67 15q23 116 137 116z" />
    <glyph glyph-name="three.sups" unicode="&#xb3;" horiz-adv-x="340" 
d="M175 821q59 0 96.5 -35.5t37.5 -89.5q0 -60 -55 -86q67 -27 67 -95q0 -57 -39 -93t-104 -36q-115 0 -145 109l66 16q19 -58 79 -58q31 0 50 18t19 48q0 27 -20.5 45.5t-53.5 18.5h-47v57h49q26 1 43.5 15.5t17.5 41.5q0 26 -18 42t-45 16q-51 0 -68 -53l-64 28
q30 91 134 91z" />
    <glyph glyph-name="acute" unicode="&#xb4;" horiz-adv-x="295" 
d="M269 707l-155 -131h-99l138 131h116z" />
    <glyph glyph-name="mu" unicode="&#xb5;" horiz-adv-x="588" 
d="M510 502v-502h-89l-4 61q-56 -71 -151 -71q-57 0 -91 23v-243h-98v732h98v-294q0 -56 28.5 -90.5t77.5 -34.5q43 0 73.5 21t57.5 59v339h98z" />
    <glyph glyph-name="paragraph" unicode="&#xb6;" horiz-adv-x="701" 
d="M665 735v-78h-89v-767h-84v767h-108v-767h-84v416h-3q-119 0 -195.5 53t-76.5 157q0 107 75 163t198 56h367z" />
    <glyph glyph-name="periodcentered" unicode="&#xb7;" horiz-adv-x="192" 
d="M96 322q28 0 47 -19t19 -47t-19 -46.5t-47 -18.5t-47 18.5t-19 46.5t19 47t47 19z" />
    <glyph glyph-name="cedilla" unicode="&#xb8;" horiz-adv-x="245" 
d="M92 16l58 -4l-11 -68q42 -4 66 -28.5t24 -65.5q0 -46 -29 -74t-80 -28q-64 0 -99 40l39 45q24 -28 57 -28q44 0 44 42q0 38 -41 42q-26 3 -48 -7l-3 4z" />
    <glyph glyph-name="one.sups" unicode="&#xb9;" horiz-adv-x="257" 
d="M203 821v-427h-74v308l-71 -45l-32 67l175 97h2z" />
    <glyph glyph-name="ordmasculine" unicode="&#xba;" horiz-adv-x="417" 
d="M209 748q78 0 130 -52.5t52 -131.5t-52 -131t-130 -52q-80 0 -131.5 51.5t-51.5 131.5q0 79 51.5 131.5t131.5 52.5zM209 677q-45 0 -73.5 -32t-28.5 -81t28.5 -81t73.5 -32q44 0 72.5 32t28.5 81t-28.5 81t-72.5 32z" />
    <glyph glyph-name="guillemotright" unicode="&#xbb;" horiz-adv-x="489" 
d="M107 458l138 -200v-4l-138 -200h-92l136 202l-136 202h92zM336 458l138 -200v-4l-138 -200h-92l135 202l-135 202h92z" />
    <glyph glyph-name="onequarter" unicode="&#xbc;" horiz-adv-x="731" 
d="M583 734l-364 -734h-91l364 734h91zM203 721v-427h-74v308l-71 -45l-32 67l175 97h2zM660 428v-304h55v-60h-55v-64h-72v65h-216v2l286 361h2zM589 245l-94 -122h94v122z" />
    <glyph glyph-name="onehalf" unicode="&#xbd;" horiz-adv-x="791" 
d="M583 734l-364 -734h-91l364 734h91zM203 721v-427h-74v308l-71 -45l-32 67l175 97h2zM620 427q63 0 101.5 -36.5t38.5 -93.5q0 -58 -53 -124l-89 -107h146v-66h-273v4l154 207q40 48 40 87q0 29 -18 46t-47 17q-58 0 -70 -65l-67 15q23 116 137 116z" />
    <glyph glyph-name="threequarters" unicode="&#xbe;" horiz-adv-x="815" 
d="M666 734l-364 -734h-91l364 734h91zM743 428v-304h55v-60h-55v-64h-72v65h-216v2l286 361h2zM672 245l-94 -122h94v122zM175 721q59 0 96.5 -35.5t37.5 -89.5q0 -60 -55 -86q67 -27 67 -95q0 -57 -39 -93t-104 -36q-115 0 -145 109l66 16q19 -58 79 -58q31 0 50 18t19 48
q0 27 -20.5 45.5t-53.5 18.5h-47v57h49q26 1 43.5 15.5t17.5 41.5q0 26 -18 42t-45 16q-51 0 -68 -53l-64 28q30 91 134 91z" />
    <glyph glyph-name="questiondown" unicode="&#xbf;" horiz-adv-x="491" 
d="M253 -250q-95 0 -155.5 57t-60.5 144q0 48 17 84.5t41.5 59t49 43t41.5 47t17 59.5v49h99v-61q0 -41 -16.5 -73.5t-40.5 -54t-48 -42t-40.5 -48.5t-16.5 -62q0 -52 32 -82t82 -30q100 0 120 104l97 -17q-38 -177 -218 -177zM252 383q-28 0 -46 18.5t-18 45.5q0 28 18 46
t46 18t46 -18t18 -46q0 -27 -18 -45.5t-46 -18.5z" />
    <glyph glyph-name="Agrave" unicode="&#xc0;" horiz-adv-x="698" 
d="M349 523l-127 -284h254zM351 748l338 -748h-109l-66 150h-330l-66 -150h-109l338 748h4zM270 887l133 -115h-108l-146 115h121z" />
    <glyph glyph-name="Aacute" unicode="&#xc1;" horiz-adv-x="698" 
d="M349 523l-127 -284h254zM351 748l338 -748h-109l-66 150h-330l-66 -150h-109l338 748h4zM538 887l-146 -115h-108l133 115h121z" />
    <glyph glyph-name="Acircumflex" unicode="&#xc2;" horiz-adv-x="698" 
d="M349 523l-127 -284h254zM351 748l338 -748h-109l-66 150h-330l-66 -150h-109l338 748h4zM348 916l159 -145h-91l-68 61l-68 -61h-91z" />
    <glyph glyph-name="Atilde" unicode="&#xc3;" horiz-adv-x="698" 
d="M349 523l-127 -284h254zM351 748l338 -748h-109l-66 150h-330l-66 -150h-109l338 748h4zM287 915q29 0 49.5 -12t29.5 -27t22 -27t28 -12q32 0 32 72h64q0 -68 -28.5 -103.5t-73.5 -35.5q-29 0 -49 12t-28 27t-20.5 27t-28.5 12q-34 0 -34 -72h-65q0 70 28.5 104.5
t73.5 34.5z" />
    <glyph glyph-name="Adieresis" unicode="&#xc4;" horiz-adv-x="698" 
d="M349 523l-127 -284h254zM351 748l338 -748h-109l-66 150h-330l-66 -150h-109l338 748h4zM263 883q24 0 39.5 -15.5t15.5 -38.5t-15.5 -38.5t-39.5 -15.5q-23 0 -38.5 15.5t-15.5 38.5t15.5 38.5t38.5 15.5zM434 883q23 0 39 -15.5t16 -38.5t-16 -38.5t-39 -15.5
t-38.5 15.5t-15.5 38.5t15.5 38.5t38.5 15.5z" />
    <glyph glyph-name="Aring" unicode="&#xc5;" horiz-adv-x="698" 
d="M349 523l-127 -284h254zM351 748l338 -748h-109l-66 150h-330l-66 -150h-109l338 748h4zM349 986q47 0 78 -31t31 -77q0 -47 -31 -77.5t-78 -30.5t-78.5 30.5t-31.5 77.5q0 46 31.5 77t78.5 31zM349 931q-22 0 -37 -15.5t-15 -37.5q0 -23 15 -37.5t37 -14.5t37 14.5
t15 37.5q0 22 -15 37.5t-37 15.5z" />
    <glyph glyph-name="AE" unicode="&#xc6;" horiz-adv-x="870" 
d="M831 735v-94h-410l93 -225h274v-87h-238l98 -235h191v-94h-264l-64 155h-325l-63 -155h-114l319 735h503zM349 553l-130 -318h260z" />
    <glyph glyph-name="Ccedilla" unicode="&#xc7;" horiz-adv-x="680" 
d="M403 748q155 0 260 -107l-65 -74q-80 87 -195 87q-118 0 -192.5 -81t-74.5 -206t74.5 -205.5t192.5 -80.5q120 0 200 92l64 -76q-100 -108 -261 -110l-7 -43q42 -4 66 -28.5t24 -65.5q0 -46 -29 -74t-80 -28q-64 0 -99 40l39 45q24 -28 57 -28q44 0 44 42q0 38 -41 42
q-26 3 -48 -7l-3 4l18 105q-140 19 -227 123t-87 253q0 165 104.5 273t265.5 108z" />
    <glyph glyph-name="Egrave" unicode="&#xc8;" horiz-adv-x="577" 
d="M537 735v-94h-353v-223h310v-91h-310v-233h361v-94h-463v735h455zM239 887l133 -115h-108l-146 115h121z" />
    <glyph glyph-name="Eacute" unicode="&#xc9;" horiz-adv-x="577" 
d="M537 735v-94h-353v-223h310v-91h-310v-233h361v-94h-463v735h455zM508 887l-146 -115h-108l133 115h121z" />
    <glyph glyph-name="Ecircumflex" unicode="&#xca;" horiz-adv-x="577" 
d="M537 735v-94h-353v-223h310v-91h-310v-233h361v-94h-463v735h455zM317 916l159 -145h-91l-68 61l-68 -61h-91z" />
    <glyph glyph-name="Edieresis" unicode="&#xcb;" horiz-adv-x="577" 
d="M537 735v-94h-353v-223h310v-91h-310v-233h361v-94h-463v735h455zM232 883q24 0 39.5 -15.5t15.5 -38.5t-15.5 -38.5t-39.5 -15.5q-23 0 -38.5 15.5t-15.5 38.5t15.5 38.5t38.5 15.5zM403 883q23 0 39 -15.5t16 -38.5t-16 -38.5t-39 -15.5t-38.5 15.5t-15.5 38.5
t15.5 38.5t38.5 15.5z" />
    <glyph glyph-name="Igrave" unicode="&#xcc;" horiz-adv-x="266" 
d="M184 735v-735h-102v735h102zM55 887l133 -115h-108l-146 115h121z" />
    <glyph glyph-name="Iacute" unicode="&#xcd;" horiz-adv-x="266" 
d="M184 735v-735h-102v735h102zM322 887l-146 -115h-108l133 115h121z" />
    <glyph glyph-name="Icircumflex" unicode="&#xce;" horiz-adv-x="266" 
d="M184 735v-735h-102v735h102zM133 916l159 -145h-91l-68 61l-68 -61h-91z" />
    <glyph glyph-name="Idieresis" unicode="&#xcf;" horiz-adv-x="266" 
d="M184 735v-735h-102v735h102zM48 883q24 0 39.5 -15.5t15.5 -38.5t-15.5 -38.5t-39.5 -15.5q-23 0 -38.5 15.5t-15.5 38.5t15.5 38.5t38.5 15.5zM219 883q23 0 39 -15.5t16 -38.5t-16 -38.5t-39 -15.5t-38.5 15.5t-15.5 38.5t15.5 38.5t38.5 15.5z" />
    <glyph glyph-name="Eth" unicode="&#xd0;" horiz-adv-x="750" 
d="M322 735q186 0 290.5 -96.5t104.5 -270.5t-104 -271t-291 -97h-222v343h-87v69h87v323h222zM319 640h-117v-228h114v-69h-114v-249h117q142 0 218.5 71.5t76.5 202.5q0 129 -77 200.5t-218 71.5z" />
    <glyph glyph-name="Ntilde" unicode="&#xd1;" horiz-adv-x="729" 
d="M647 735v-748h-4l-459 507v-494h-102v748h4l459 -506v493h102zM303 915q29 0 49.5 -12t29.5 -27t22 -27t28 -12q32 0 32 72h64q0 -68 -28.5 -103.5t-73.5 -35.5q-29 0 -49 12t-28 27t-20.5 27t-28.5 12q-34 0 -34 -72h-65q0 70 28.5 104.5t73.5 34.5z" />
    <glyph glyph-name="Ograve" unicode="&#xd2;" horiz-adv-x="806" 
d="M403 748q160 0 265.5 -108.5t105.5 -272.5q0 -165 -105.5 -272.5t-265.5 -107.5q-161 0 -265.5 107.5t-104.5 272.5q0 164 105 272.5t265 108.5zM403 654q-117 0 -192 -81t-75 -206t75 -205.5t192 -80.5t192 80.5t75 205.5t-75 206t-192 81zM324 897l133 -115h-108
l-146 115h121z" />
    <glyph glyph-name="Oacute" unicode="&#xd3;" horiz-adv-x="806" 
d="M403 748q160 0 265.5 -108.5t105.5 -272.5q0 -165 -105.5 -272.5t-265.5 -107.5q-161 0 -265.5 107.5t-104.5 272.5q0 164 105 272.5t265 108.5zM403 654q-117 0 -192 -81t-75 -206t75 -205.5t192 -80.5t192 80.5t75 205.5t-75 206t-192 81zM593 897l-146 -115h-108
l133 115h121z" />
    <glyph glyph-name="Ocircumflex" unicode="&#xd4;" horiz-adv-x="806" 
d="M403 748q160 0 265.5 -108.5t105.5 -272.5q0 -165 -105.5 -272.5t-265.5 -107.5q-161 0 -265.5 107.5t-104.5 272.5q0 164 105 272.5t265 108.5zM403 654q-117 0 -192 -81t-75 -206t75 -205.5t192 -80.5t192 80.5t75 205.5t-75 206t-192 81zM402 926l159 -145h-91l-68 61
l-68 -61h-91z" />
    <glyph glyph-name="Otilde" unicode="&#xd5;" horiz-adv-x="806" 
d="M403 748q160 0 265.5 -108.5t105.5 -272.5q0 -165 -105.5 -272.5t-265.5 -107.5q-161 0 -265.5 107.5t-104.5 272.5q0 164 105 272.5t265 108.5zM403 654q-117 0 -192 -81t-75 -206t75 -205.5t192 -80.5t192 80.5t75 205.5t-75 206t-192 81zM341 925q29 0 49.5 -12
t29.5 -27t22 -27t28 -12q32 0 32 72h64q0 -68 -28.5 -103.5t-73.5 -35.5q-29 0 -49 12t-28 27t-20.5 27t-28.5 12q-34 0 -34 -72h-65q0 70 28.5 104.5t73.5 34.5z" />
    <glyph glyph-name="Odieresis" unicode="&#xd6;" horiz-adv-x="806" 
d="M403 748q160 0 265.5 -108.5t105.5 -272.5q0 -165 -105.5 -272.5t-265.5 -107.5q-161 0 -265.5 107.5t-104.5 272.5q0 164 105 272.5t265 108.5zM403 654q-117 0 -192 -81t-75 -206t75 -205.5t192 -80.5t192 80.5t75 205.5t-75 206t-192 81zM317 893q24 0 39.5 -15.5
t15.5 -38.5t-15.5 -38.5t-39.5 -15.5q-23 0 -38.5 15.5t-15.5 38.5t15.5 38.5t38.5 15.5zM488 893q23 0 39 -15.5t16 -38.5t-16 -38.5t-39 -15.5t-38.5 15.5t-15.5 38.5t15.5 38.5t38.5 15.5z" />
    <glyph glyph-name="multiply" unicode="&#xd7;" horiz-adv-x="455" 
d="M347 533l64 -63l-120 -120l120 -120l-64 -64l-119 120l-120 -120l-64 64l120 120l-120 119l64 64l120 -119z" />
    <glyph glyph-name="Oslash" unicode="&#xd8;" horiz-adv-x="806" 
d="M403 748q79 0 148 -29l53 96h89l-73 -134q72 -52 113 -133.5t41 -180.5q0 -165 -105.5 -272.5t-265.5 -107.5q-80 0 -148 28l-52 -95h-90l73 133q-72 51 -112.5 132.5t-40.5 181.5q0 164 105 272.5t265 108.5zM403 654q-117 0 -192 -81t-75 -206q0 -146 97 -227l272 494
q-48 20 -102 20zM670 367q0 145 -98 227l-271 -494q45 -19 102 -19q117 0 192 80.5t75 205.5z" />
    <glyph glyph-name="Ugrave" unicode="&#xd9;" horiz-adv-x="689" 
d="M616 735v-476q0 -126 -70 -199t-201 -73q-132 0 -202 73t-70 199v476h102v-470q0 -85 43.5 -134.5t126.5 -49.5q82 0 125.5 49.5t43.5 134.5v470h102zM266 887l133 -115h-108l-146 115h121z" />
    <glyph glyph-name="Uacute" unicode="&#xda;" horiz-adv-x="689" 
d="M616 735v-476q0 -126 -70 -199t-201 -73q-132 0 -202 73t-70 199v476h102v-470q0 -85 43.5 -134.5t126.5 -49.5q82 0 125.5 49.5t43.5 134.5v470h102zM534 887l-146 -115h-108l133 115h121z" />
    <glyph glyph-name="Ucircumflex" unicode="&#xdb;" horiz-adv-x="689" 
d="M616 735v-476q0 -126 -70 -199t-201 -73q-132 0 -202 73t-70 199v476h102v-470q0 -85 43.5 -134.5t126.5 -49.5q82 0 125.5 49.5t43.5 134.5v470h102zM344 916l159 -145h-91l-68 61l-68 -61h-91z" />
    <glyph glyph-name="Udieresis" unicode="&#xdc;" horiz-adv-x="689" 
d="M616 735v-476q0 -126 -70 -199t-201 -73q-132 0 -202 73t-70 199v476h102v-470q0 -85 43.5 -134.5t126.5 -49.5q82 0 125.5 49.5t43.5 134.5v470h102zM259 883q24 0 39.5 -15.5t15.5 -38.5t-15.5 -38.5t-39.5 -15.5q-23 0 -38.5 15.5t-15.5 38.5t15.5 38.5t38.5 15.5z
M430 883q23 0 39 -15.5t16 -38.5t-16 -38.5t-39 -15.5t-38.5 15.5t-15.5 38.5t15.5 38.5t38.5 15.5z" />
    <glyph glyph-name="Yacute" unicode="&#xdd;" horiz-adv-x="660" 
d="M653 734l-272 -423v-311h-102v309l-272 425h119l204 -322l203 322h120zM519 887l-146 -115h-108l133 115h121z" />
    <glyph glyph-name="Thorn" unicode="&#xde;" horiz-adv-x="566" 
d="M184 735v-132h124q95 0 162.5 -56t67.5 -151q0 -96 -67 -151.5t-163 -55.5h-124v-189h-102v735h102zM299 513h-115v-235h115q58 0 97 31.5t39 86.5q0 54 -39 85.5t-97 31.5z" />
    <glyph glyph-name="germandbls" unicode="&#xdf;" horiz-adv-x="647" 
d="M314 748q97 0 157 -57t60 -146q0 -103 -91 -144q57 -16 98.5 -63.5t41.5 -128.5q0 -100 -63 -161t-171 -61q-62 0 -105 24l21 88q39 -22 81 -22q58 0 95.5 35.5t37.5 97.5q0 48 -26 80.5t-73 46.5q-41 12 -85 12v75q35 0 72 17q64 29 64 97q0 55 -34.5 88t-83.5 33
q-58 0 -91.5 -33.5t-33.5 -99.5v-526h-100v521q0 104 65.5 165.5t163.5 61.5z" />
    <glyph glyph-name="agrave" unicode="&#xe0;" horiz-adv-x="593" 
d="M262 512q107 0 161 -71l4 61h89v-502h-89l-4 61q-54 -71 -161 -71q-103 0 -167.5 73.5t-64.5 187.5t64.5 187.5t167.5 73.5zM280 425q-66 0 -108.5 -48t-42.5 -126t42.5 -126t108.5 -48q86 0 138 85v178q-52 85 -138 85zM209 707l138 -131h-99l-155 131h116z" />
    <glyph glyph-name="aacute" unicode="&#xe1;" horiz-adv-x="593" 
d="M262 512q107 0 161 -71l4 61h89v-502h-89l-4 61q-54 -71 -161 -71q-103 0 -167.5 73.5t-64.5 187.5t64.5 187.5t167.5 73.5zM280 425q-66 0 -108.5 -48t-42.5 -126t42.5 -126t108.5 -48q86 0 138 85v178q-52 85 -138 85zM489 707l-155 -131h-99l138 131h116z" />
    <glyph glyph-name="acircumflex" unicode="&#xe2;" horiz-adv-x="593" 
d="M262 512q107 0 161 -71l4 61h89v-502h-89l-4 61q-54 -71 -161 -71q-103 0 -167.5 73.5t-64.5 187.5t64.5 187.5t167.5 73.5zM280 425q-66 0 -108.5 -48t-42.5 -126t42.5 -126t108.5 -48q86 0 138 85v178q-52 85 -138 85zM293 743l154 -167h-89l-65 65l-66 -65h-89z" />
    <glyph glyph-name="atilde" unicode="&#xe3;" horiz-adv-x="593" 
d="M262 512q107 0 161 -71l4 61h89v-502h-89l-4 61q-54 -71 -161 -71q-103 0 -167.5 73.5t-64.5 187.5t64.5 187.5t167.5 73.5zM280 425q-66 0 -108.5 -48t-42.5 -126t42.5 -126t108.5 -48q86 0 138 85v178q-52 85 -138 85zM232 717q29 0 49.5 -12t29.5 -27t22 -27t28 -12
q32 0 32 72h64q0 -68 -28.5 -103.5t-73.5 -35.5q-29 0 -49 12t-28 27t-20.5 27t-28.5 12q-34 0 -34 -72h-65q0 70 28.5 104.5t73.5 34.5z" />
    <glyph glyph-name="adieresis" unicode="&#xe4;" horiz-adv-x="593" 
d="M262 512q107 0 161 -71l4 61h89v-502h-89l-4 61q-54 -71 -161 -71q-103 0 -167.5 73.5t-64.5 187.5t64.5 187.5t167.5 73.5zM280 425q-66 0 -108.5 -48t-42.5 -126t42.5 -126t108.5 -48q86 0 138 85v178q-52 85 -138 85zM208 695q24 0 39.5 -15.5t15.5 -38.5t-15.5 -38.5
t-39.5 -15.5q-23 0 -38.5 15.5t-15.5 38.5t15.5 38.5t38.5 15.5zM379 695q23 0 39 -15.5t16 -38.5t-16 -38.5t-39 -15.5t-38.5 15.5t-15.5 38.5t15.5 38.5t38.5 15.5z" />
    <glyph glyph-name="aring" unicode="&#xe5;" horiz-adv-x="593" 
d="M262 512q107 0 161 -71l4 61h89v-502h-89l-4 61q-54 -71 -161 -71q-103 0 -167.5 73.5t-64.5 187.5t64.5 187.5t167.5 73.5zM280 425q-66 0 -108.5 -48t-42.5 -126t42.5 -126t108.5 -48q86 0 138 85v178q-52 85 -138 85zM294 787q46 0 77.5 -31.5t31.5 -77.5t-31 -76.5
t-78 -30.5t-78.5 30.5t-31.5 76.5q0 47 31.5 78t78.5 31zM294 731q-22 0 -37 -15.5t-15 -37.5t15 -36.5t37 -14.5t37 14.5t15 36.5t-15 37.5t-37 15.5z" />
    <glyph glyph-name="ae" unicode="&#xe6;" horiz-adv-x="944" 
d="M680 512q108 0 169.5 -72t61.5 -188v-36h-377q11 -142 156 -142q90 0 141 64l68 -57q-76 -91 -206 -91q-127 0 -179 71l-4 -61h-83l-4 61q-54 -71 -161 -71q-103 0 -167.5 73.5t-64.5 187.5t64.5 187.5t167.5 73.5q107 0 161 -71l4 61h84l4 -61q66 71 165 71zM676 428
q-58 0 -97.5 -33t-45.5 -99h281q-3 60 -39 96t-99 36zM280 425q-66 0 -108.5 -48t-42.5 -126t42.5 -126t108.5 -48q86 0 138 85v178q-52 85 -138 85z" />
    <glyph glyph-name="ccedilla" unicode="&#xe7;" horiz-adv-x="506" 
d="M283 512q130 0 201 -108l-73 -56q-48 78 -127 78q-74 0 -114.5 -48.5t-40.5 -126.5q0 -77 41 -126t115 -49q81 0 129 78l73 -56q-69 -105 -198 -108l-7 -46q42 -4 66 -28.5t24 -65.5q0 -46 -29 -74t-80 -28q-64 0 -99 40l39 45q24 -28 57 -28q44 0 44 42q0 38 -41 42
q-26 3 -48 -7l-3 4l19 109q-93 16 -147 85.5t-54 170.5q0 115 69 188t184 73z" />
    <glyph glyph-name="egrave" unicode="&#xe8;" horiz-adv-x="530" 
d="M270 512q108 0 167.5 -73t59.5 -184v-39h-368q2 -69 41.5 -105.5t110.5 -36.5q90 0 136 64l68 -57q-74 -91 -204 -91q-115 0 -183 72.5t-68 187.5q0 114 67.5 188t172.5 74zM270 428q-61 0 -99 -36t-42 -96h271q-2 60 -36 96t-94 36zM184 707l138 -131h-99l-155 131h116z
" />
    <glyph glyph-name="eacute" unicode="&#xe9;" horiz-adv-x="530" 
d="M270 512q108 0 167.5 -73t59.5 -184v-39h-368q2 -69 41.5 -105.5t110.5 -36.5q90 0 136 64l68 -57q-74 -91 -204 -91q-115 0 -183 72.5t-68 187.5q0 114 67.5 188t172.5 74zM270 428q-61 0 -99 -36t-42 -96h271q-2 60 -36 96t-94 36zM465 707l-155 -131h-99l138 131h116z
" />
    <glyph glyph-name="ecircumflex" unicode="&#xea;" horiz-adv-x="530" 
d="M270 512q108 0 167.5 -73t59.5 -184v-39h-368q2 -69 41.5 -105.5t110.5 -36.5q90 0 136 64l68 -57q-74 -91 -204 -91q-115 0 -183 72.5t-68 187.5q0 114 67.5 188t172.5 74zM270 428q-61 0 -99 -36t-42 -96h271q-2 60 -36 96t-94 36zM269 743l154 -167h-89l-65 65
l-66 -65h-89z" />
    <glyph glyph-name="edieresis" unicode="&#xeb;" horiz-adv-x="530" 
d="M270 512q108 0 167.5 -73t59.5 -184v-39h-368q2 -69 41.5 -105.5t110.5 -36.5q90 0 136 64l68 -57q-74 -91 -204 -91q-115 0 -183 72.5t-68 187.5q0 114 67.5 188t172.5 74zM270 428q-61 0 -99 -36t-42 -96h271q-2 60 -36 96t-94 36zM183 695q24 0 39.5 -15.5t15.5 -38.5
t-15.5 -38.5t-39.5 -15.5q-23 0 -38.5 15.5t-15.5 38.5t15.5 38.5t38.5 15.5zM354 695q23 0 39 -15.5t16 -38.5t-16 -38.5t-39 -15.5t-38.5 15.5t-15.5 38.5t15.5 38.5t38.5 15.5z" />
    <glyph glyph-name="igrave" unicode="&#xec;" horiz-adv-x="253" 
d="M42 707l138 -131h-99l-155 131h116zM175 502v-502h-98v502h98z" />
    <glyph glyph-name="iacute" unicode="&#xed;" horiz-adv-x="253" 
d="M322 707l-155 -131h-99l138 131h116zM175 502v-502h-98v502h98z" />
    <glyph glyph-name="icircumflex" unicode="&#xee;" horiz-adv-x="253" 
d="M175 502v-502h-98v502h98zM127 743l154 -167h-89l-65 65l-66 -65h-89z" />
    <glyph glyph-name="idieresis" unicode="&#xef;" horiz-adv-x="253" 
d="M41 695q24 0 39.5 -15.5t15.5 -38.5t-15.5 -38.5t-39.5 -15.5q-23 0 -38.5 15.5t-15.5 38.5t15.5 38.5t38.5 15.5zM212 695q23 0 39 -15.5t16 -38.5t-16 -38.5t-39 -15.5t-38.5 15.5t-15.5 38.5t15.5 38.5t38.5 15.5zM175 502v-502h-98v502h98z" />
    <glyph glyph-name="eth" unicode="&#xf0;" horiz-adv-x="567" 
d="M285 485q12 0 17 -1l-59 88h-172v74h122l-76 114h119l76 -114h175v-74h-125l117 -174q57 -68 57 -161q0 -107 -71 -177t-180 -70t-179.5 70t-70.5 177t71 177.5t179 70.5zM285 403q-66 0 -109 -47.5t-43 -118.5t43 -118t109 -47t109.5 47t43.5 118t-43.5 118.5
t-109.5 47.5z" />
    <glyph glyph-name="ntilde" unicode="&#xf1;" horiz-adv-x="583" 
d="M329 512q89 0 139.5 -58.5t50.5 -156.5v-297h-98v291q0 57 -31.5 92.5t-84.5 35.5q-74 0 -130 -80v-339h-98v502h89l4 -61q56 71 159 71zM236 717q29 0 49.5 -12t29.5 -27t22 -27t28 -12q32 0 32 72h64q0 -68 -28.5 -103.5t-73.5 -35.5q-29 0 -49 12t-28 27t-20.5 27
t-28.5 12q-34 0 -34 -72h-65q0 70 28.5 104.5t73.5 34.5z" />
    <glyph glyph-name="ograve" unicode="&#xf2;" 
d="M287 512q112 0 185 -74.5t73 -187.5t-73 -186.5t-185 -73.5t-184.5 73.5t-72.5 186.5t72.5 187.5t184.5 74.5zM287 425q-69 0 -113.5 -49.5t-44.5 -125.5q0 -75 44.5 -124t113.5 -49t114 49t45 124q0 76 -45 125.5t-114 49.5zM202 707l138 -131h-99l-155 131h116z" />
    <glyph glyph-name="oacute" unicode="&#xf3;" 
d="M287 512q112 0 185 -74.5t73 -187.5t-73 -186.5t-185 -73.5t-184.5 73.5t-72.5 186.5t72.5 187.5t184.5 74.5zM287 425q-69 0 -113.5 -49.5t-44.5 -125.5q0 -75 44.5 -124t113.5 -49t114 49t45 124q0 76 -45 125.5t-114 49.5zM483 707l-155 -131h-99l138 131h116z" />
    <glyph glyph-name="ocircumflex" unicode="&#xf4;" 
d="M287 512q112 0 185 -74.5t73 -187.5t-73 -186.5t-185 -73.5t-184.5 73.5t-72.5 186.5t72.5 187.5t184.5 74.5zM287 425q-69 0 -113.5 -49.5t-44.5 -125.5q0 -75 44.5 -124t113.5 -49t114 49t45 124q0 76 -45 125.5t-114 49.5zM287 743l154 -167h-89l-65 65l-66 -65h-89z
" />
    <glyph glyph-name="otilde" unicode="&#xf5;" 
d="M287 512q112 0 185 -74.5t73 -187.5t-73 -186.5t-185 -73.5t-184.5 73.5t-72.5 186.5t72.5 187.5t184.5 74.5zM287 425q-69 0 -113.5 -49.5t-44.5 -125.5q0 -75 44.5 -124t113.5 -49t114 49t45 124q0 76 -45 125.5t-114 49.5zM225 717q29 0 49.5 -12t29.5 -27t22 -27
t28 -12q32 0 32 72h64q0 -68 -28.5 -103.5t-73.5 -35.5q-29 0 -49 12t-28 27t-20.5 27t-28.5 12q-34 0 -34 -72h-65q0 70 28.5 104.5t73.5 34.5z" />
    <glyph glyph-name="odieresis" unicode="&#xf6;" 
d="M287 512q112 0 185 -74.5t73 -187.5t-73 -186.5t-185 -73.5t-184.5 73.5t-72.5 186.5t72.5 187.5t184.5 74.5zM287 425q-69 0 -113.5 -49.5t-44.5 -125.5q0 -75 44.5 -124t113.5 -49t114 49t45 124q0 76 -45 125.5t-114 49.5zM201 695q24 0 39.5 -15.5t15.5 -38.5
t-15.5 -38.5t-39.5 -15.5q-23 0 -38.5 15.5t-15.5 38.5t15.5 38.5t38.5 15.5zM372 695q23 0 39 -15.5t16 -38.5t-16 -38.5t-39 -15.5t-38.5 15.5t-15.5 38.5t15.5 38.5t38.5 15.5z" />
    <glyph glyph-name="divide" unicode="&#xf7;" horiz-adv-x="486" 
d="M242 604q28 0 45.5 -18t17.5 -46q0 -26 -17.5 -44t-45.5 -18q-27 0 -44.5 18t-17.5 44q0 28 17.5 46t44.5 18zM242 219q28 0 45.5 -17.5t17.5 -45.5q0 -27 -17.5 -45t-45.5 -18q-27 0 -44.5 18t-17.5 45t17.5 45t44.5 18zM446 395v-90h-407v90h407z" />
    <glyph glyph-name="oslash" unicode="&#xf8;" 
d="M287 512q54 0 99 -18l43 78h66l-57 -106q50 -35 78.5 -91.5t28.5 -124.5q0 -113 -73 -186.5t-185 -73.5q-48 0 -97 17l-42 -77h-67l56 104q-50 34 -78.5 90.5t-28.5 125.5q0 113 72.5 187.5t184.5 74.5zM287 430q-71 0 -117 -51t-46 -129q0 -87 56 -138l166 307
q-28 11 -59 11zM450 250q0 85 -55 137l-165 -305q24 -10 57 -10q71 0 117 50.5t46 127.5z" />
    <glyph glyph-name="ugrave" unicode="&#xf9;" 
d="M498 502v-502h-89l-4 61q-56 -71 -161 -71q-85 0 -132 57.5t-47 155.5v299h98v-294q0 -56 28.5 -90.5t77.5 -34.5q43 0 73.5 21t57.5 59v339h98zM196 707l138 -131h-99l-155 131h116z" />
    <glyph glyph-name="uacute" unicode="&#xfa;" 
d="M498 502v-502h-89l-4 61q-56 -71 -161 -71q-85 0 -132 57.5t-47 155.5v299h98v-294q0 -56 28.5 -90.5t77.5 -34.5q43 0 73.5 21t57.5 59v339h98zM476 707l-155 -131h-99l138 131h116z" />
    <glyph glyph-name="ucircumflex" unicode="&#xfb;" 
d="M498 502v-502h-89l-4 61q-56 -71 -161 -71q-85 0 -132 57.5t-47 155.5v299h98v-294q0 -56 28.5 -90.5t77.5 -34.5q43 0 73.5 21t57.5 59v339h98zM281 743l154 -167h-89l-65 65l-66 -65h-89z" />
    <glyph glyph-name="udieresis" unicode="&#xfc;" 
d="M498 502v-502h-89l-4 61q-56 -71 -161 -71q-85 0 -132 57.5t-47 155.5v299h98v-294q0 -56 28.5 -90.5t77.5 -34.5q43 0 73.5 21t57.5 59v339h98zM195 695q24 0 39.5 -15.5t15.5 -38.5t-15.5 -38.5t-39.5 -15.5q-23 0 -38.5 15.5t-15.5 38.5t15.5 38.5t38.5 15.5zM366 695
q23 0 39 -15.5t16 -38.5t-16 -38.5t-39 -15.5t-38.5 15.5t-15.5 38.5t15.5 38.5t38.5 15.5z" />
    <glyph glyph-name="yacute" unicode="&#xfd;" horiz-adv-x="552" 
d="M537 502l-367 -732h-112l165 312l-207 420h109l151 -310l151 310h110zM464 707l-155 -131h-99l138 131h116z" />
    <glyph glyph-name="thorn" unicode="&#xfe;" horiz-adv-x="592" 
d="M175 760v-312q55 64 156 64q103 0 167.5 -73.5t64.5 -187.5t-64.5 -187.5t-167.5 -73.5q-101 0 -156 64v-284h-98v990h98zM313 425q-86 0 -138 -85v-178q52 -85 138 -85q66 0 108.5 48t42.5 126t-42.5 126t-108.5 48z" />
    <glyph glyph-name="ydieresis" unicode="&#xff;" horiz-adv-x="552" 
d="M537 502l-367 -732h-112l165 312l-207 420h109l151 -310l151 310h110zM182 695q24 0 39.5 -15.5t15.5 -38.5t-15.5 -38.5t-39.5 -15.5q-23 0 -38.5 15.5t-15.5 38.5t15.5 38.5t38.5 15.5zM353 695q23 0 39 -15.5t16 -38.5t-16 -38.5t-39 -15.5t-38.5 15.5t-15.5 38.5
t15.5 38.5t38.5 15.5z" />
    <glyph glyph-name="Amacron" unicode="&#x100;" horiz-adv-x="698" 
d="M349 523l-127 -284h254zM351 748l338 -748h-109l-66 150h-330l-66 -150h-109l338 748h4zM478 857v-69h-260v69h260z" />
    <glyph glyph-name="amacron" unicode="&#x101;" horiz-adv-x="593" 
d="M262 512q107 0 161 -71l4 61h89v-502h-89l-4 61q-54 -71 -161 -71q-103 0 -167.5 73.5t-64.5 187.5t64.5 187.5t167.5 73.5zM280 425q-66 0 -108.5 -48t-42.5 -126t42.5 -126t108.5 -48q86 0 138 85v178q-52 85 -138 85zM423 665v-68h-260v68h260z" />
    <glyph glyph-name="Abreve" unicode="&#x102;" horiz-adv-x="698" 
d="M349 523l-127 -284h254zM351 748l338 -748h-109l-66 150h-330l-66 -150h-109l338 748h4zM501 917q0 -63 -43.5 -104t-108.5 -41q-66 0 -109.5 41t-43.5 104h71q0 -32 23 -55t59 -23t58.5 23t22.5 55h71z" />
    <glyph glyph-name="abreve" unicode="&#x103;" horiz-adv-x="593" 
d="M262 512q107 0 161 -71l4 61h89v-502h-89l-4 61q-54 -71 -161 -71q-103 0 -167.5 73.5t-64.5 187.5t64.5 187.5t167.5 73.5zM280 425q-66 0 -108.5 -48t-42.5 -126t42.5 -126t108.5 -48q86 0 138 85v178q-52 85 -138 85zM445 724q0 -64 -43.5 -106.5t-108.5 -42.5
t-109 42.5t-44 106.5h72q0 -35 22.5 -58t58.5 -23q35 0 57.5 23t22.5 58h72z" />
    <glyph glyph-name="Aogonek" unicode="&#x104;" horiz-adv-x="698" 
d="M351 748l338 -748h-21q-45 -18 -45 -64q0 -32 19.5 -49.5t49.5 -17.5q18 0 34 8l21 -57q-21 -10 -57 -10q-58 0 -95.5 33.5t-37.5 92.5q0 41 21 68l-64 146h-330l-66 -150h-109l338 748h4zM349 523l-127 -284h254z" />
    <glyph glyph-name="aogonek" unicode="&#x105;" horiz-adv-x="593" 
d="M262 512q107 0 161 -71l4 61h89v-502h-11q-45 -18 -45 -64q0 -32 19.5 -49.5t49.5 -17.5q18 0 34 8l21 -57q-21 -10 -57 -10q-58 0 -95.5 33.5t-37.5 92.5q0 51 32 81l-3 44q-54 -71 -161 -71q-103 0 -167.5 73.5t-64.5 187.5t64.5 187.5t167.5 73.5zM280 425
q-66 0 -108.5 -48t-42.5 -126t42.5 -126t108.5 -48q86 0 138 85v178q-52 85 -138 85z" />
    <glyph glyph-name="Cacute" unicode="&#x106;" horiz-adv-x="680" 
d="M403 748q155 0 260 -107l-65 -74q-80 87 -195 87q-118 0 -192.5 -81t-74.5 -206t74.5 -205.5t192.5 -80.5q120 0 200 92l64 -76q-101 -110 -264 -110q-161 0 -265.5 108t-104.5 272q0 165 104.5 273t265.5 108zM586 897l-146 -115h-108l133 115h121z" />
    <glyph glyph-name="cacute" unicode="&#x107;" horiz-adv-x="506" 
d="M283 512q130 0 201 -108l-73 -56q-48 78 -127 78q-74 0 -114.5 -48.5t-40.5 -126.5q0 -77 41 -126t115 -49q81 0 129 78l73 -56q-71 -108 -202 -108q-116 0 -185.5 73t-69.5 188t69 188t184 73zM475 707l-155 -131h-99l138 131h116z" />
    <glyph glyph-name="Ccircumflex" unicode="&#x108;" horiz-adv-x="680" 
d="M403 748q155 0 260 -107l-65 -74q-80 87 -195 87q-118 0 -192.5 -81t-74.5 -206t74.5 -205.5t192.5 -80.5q120 0 200 92l64 -76q-101 -110 -264 -110q-161 0 -265.5 108t-104.5 272q0 165 104.5 273t265.5 108zM396 926l159 -145h-91l-68 61l-68 -61h-91z" />
    <glyph glyph-name="ccircumflex" unicode="&#x109;" horiz-adv-x="506" 
d="M283 512q130 0 201 -108l-73 -56q-48 78 -127 78q-74 0 -114.5 -48.5t-40.5 -126.5q0 -77 41 -126t115 -49q81 0 129 78l73 -56q-71 -108 -202 -108q-116 0 -185.5 73t-69.5 188t69 188t184 73zM279 743l154 -167h-89l-65 65l-66 -65h-89z" />
    <glyph glyph-name="Cdotaccent" unicode="&#x10a;" horiz-adv-x="680" 
d="M403 748q155 0 260 -107l-65 -74q-80 87 -195 87q-118 0 -192.5 -81t-74.5 -206t74.5 -205.5t192.5 -80.5q120 0 200 92l64 -76q-101 -110 -264 -110q-161 0 -265.5 108t-104.5 272q0 165 104.5 273t265.5 108zM396 900q26 0 43 -17t17 -43t-17 -42.5t-43 -16.5
t-42.5 16.5t-16.5 42.5t16.5 43t42.5 17z" />
    <glyph glyph-name="cdotaccent" unicode="&#x10b;" horiz-adv-x="506" 
d="M283 512q130 0 201 -108l-73 -56q-48 78 -127 78q-74 0 -114.5 -48.5t-40.5 -126.5q0 -77 41 -126t115 -49q81 0 129 78l73 -56q-71 -108 -202 -108q-116 0 -185.5 73t-69.5 188t69 188t184 73zM279 722q28 0 46 -18t18 -46t-18 -45.5t-46 -17.5t-46 17.5t-18 45.5t18 46
t46 18z" />
    <glyph glyph-name="Ccaron" unicode="&#x10c;" horiz-adv-x="680" 
d="M403 748q155 0 260 -107l-65 -74q-80 87 -195 87q-118 0 -192.5 -81t-74.5 -206t74.5 -205.5t192.5 -80.5q120 0 200 92l64 -76q-101 -110 -264 -110q-161 0 -265.5 108t-104.5 272q0 165 104.5 273t265.5 108zM555 917l-159 -144l-159 144h91l68 -60l68 60h91z" />
    <glyph glyph-name="ccaron" unicode="&#x10d;" horiz-adv-x="506" 
d="M283 512q130 0 201 -108l-73 -56q-48 78 -127 78q-74 0 -114.5 -48.5t-40.5 -126.5q0 -77 41 -126t115 -49q81 0 129 78l73 -56q-71 -108 -202 -108q-116 0 -185.5 73t-69.5 188t69 188t184 73zM433 737l-154 -167l-155 167h89l66 -65l65 65h89z" />
    <glyph glyph-name="Dcaron" unicode="&#x10e;" horiz-adv-x="732" 
d="M304 735q186 0 290.5 -96.5t104.5 -270.5t-104 -271t-291 -97h-222v735h222zM301 640h-117v-546h117q142 0 218.5 71.5t76.5 202.5q0 129 -77 200.5t-218 71.5zM495 907l-159 -144l-159 144h91l68 -60l68 60h91z" />
    <glyph glyph-name="dcaron" unicode="&#x10f;" horiz-adv-x="752" 
d="M516 760v-760h-89l-4 61q-54 -71 -161 -71q-103 0 -167.5 73.5t-64.5 187.5t64.5 187.5t167.5 73.5q101 0 156 -64v312h98zM280 425q-66 0 -108.5 -48t-42.5 -126t42.5 -126t108.5 -48q86 0 138 85v178q-52 85 -138 85zM642 752q30 0 49.5 -19.5t19.5 -49.5
q0 -20 -12 -41l-78 -159h-4v265q11 4 25 4z" />
    <glyph glyph-name="Dcroat" unicode="&#x110;" horiz-adv-x="750" 
d="M322 735q186 0 290.5 -96.5t104.5 -270.5t-104 -271t-291 -97h-222v343h-87v69h87v323h222zM319 640h-117v-228h114v-69h-114v-249h117q142 0 218.5 71.5t76.5 202.5q0 129 -77 200.5t-218 71.5z" />
    <glyph glyph-name="dcroat" unicode="&#x111;" horiz-adv-x="607" 
d="M516 760v-107h90v-69h-90v-584h-89l-4 61q-54 -71 -161 -71q-103 0 -167.5 73.5t-64.5 187.5t64.5 187.5t167.5 73.5q101 0 156 -64v136h-116v69h116v107h98zM280 425q-66 0 -108.5 -48t-42.5 -126t42.5 -126t108.5 -48q86 0 138 85v178q-52 85 -138 85z" />
    <glyph glyph-name="Emacron" unicode="&#x112;" horiz-adv-x="577" 
d="M537 735v-94h-353v-223h310v-91h-310v-233h361v-94h-463v735h455zM448 857v-69h-260v69h260z" />
    <glyph glyph-name="emacron" unicode="&#x113;" horiz-adv-x="530" 
d="M270 512q108 0 167.5 -73t59.5 -184v-39h-368q2 -69 41.5 -105.5t110.5 -36.5q90 0 136 64l68 -57q-74 -91 -204 -91q-115 0 -183 72.5t-68 187.5q0 114 67.5 188t172.5 74zM270 428q-61 0 -99 -36t-42 -96h271q-2 60 -36 96t-94 36zM399 665v-68h-260v68h260z" />
    <glyph glyph-name="Ebreve" unicode="&#x114;" horiz-adv-x="577" 
d="M537 735v-94h-353v-223h310v-91h-310v-233h361v-94h-463v735h455zM470 917q0 -63 -43.5 -104t-108.5 -41q-66 0 -109.5 41t-43.5 104h71q0 -32 23 -55t59 -23t58.5 23t22.5 55h71z" />
    <glyph glyph-name="ebreve" unicode="&#x115;" horiz-adv-x="530" 
d="M270 512q108 0 167.5 -73t59.5 -184v-39h-368q2 -69 41.5 -105.5t110.5 -36.5q90 0 136 64l68 -57q-74 -91 -204 -91q-115 0 -183 72.5t-68 187.5q0 114 67.5 188t172.5 74zM270 428q-61 0 -99 -36t-42 -96h271q-2 60 -36 96t-94 36zM421 724q0 -64 -43.5 -106.5
t-108.5 -42.5t-109 42.5t-44 106.5h72q0 -35 22.5 -58t58.5 -23q35 0 57.5 23t22.5 58h72z" />
    <glyph glyph-name="Edotaccent" unicode="&#x116;" horiz-adv-x="577" 
d="M537 735v-94h-353v-223h310v-91h-310v-233h361v-94h-463v735h455zM317 890q26 0 43 -17t17 -43t-17 -42.5t-43 -16.5q-25 0 -42 16.5t-17 42.5t16.5 43t42.5 17z" />
    <glyph glyph-name="edotaccent" unicode="&#x117;" horiz-adv-x="530" 
d="M270 512q108 0 167.5 -73t59.5 -184v-39h-368q2 -69 41.5 -105.5t110.5 -36.5q90 0 136 64l68 -57q-74 -91 -204 -91q-115 0 -183 72.5t-68 187.5q0 114 67.5 188t172.5 74zM270 428q-61 0 -99 -36t-42 -96h271q-2 60 -36 96t-94 36zM269 722q28 0 46 -18t18 -46
t-18 -45.5t-46 -17.5t-46 17.5t-18 45.5t18 46t46 18z" />
    <glyph glyph-name="Eogonek" unicode="&#x118;" horiz-adv-x="577" 
d="M537 735v-94h-353v-223h310v-91h-310v-233h361v-94h-55q-45 -18 -45 -64q0 -32 19.5 -49.5t49.5 -17.5q18 0 34 8l21 -57q-21 -10 -57 -10q-58 0 -95.5 33.5t-37.5 92.5q0 38 18 64h-315v735h455z" />
    <glyph glyph-name="eogonek" unicode="&#x119;" horiz-adv-x="530" 
d="M270 512q108 0 167.5 -73t59.5 -184v-39h-368q2 -69 41.5 -105.5t110.5 -36.5q90 0 136 64l68 -57q-40 -50 -99 -73q-25 -19 -25 -53q0 -32 19.5 -49.5t49.5 -17.5q18 0 34 8l21 -57q-21 -10 -57 -10q-58 0 -95.5 33.5t-37.5 92.5q0 21 4 36q-6 -1 -18 -1
q-115 0 -183 72.5t-68 187.5q0 114 67.5 188t172.5 74zM270 428q-61 0 -99 -36t-42 -96h271q-2 60 -36 96t-94 36z" />
    <glyph glyph-name="Ecaron" unicode="&#x11a;" horiz-adv-x="577" 
d="M537 735v-94h-353v-223h310v-91h-310v-233h361v-94h-463v735h455zM476 907l-159 -144l-159 144h91l68 -60l68 60h91z" />
    <glyph glyph-name="ecaron" unicode="&#x11b;" horiz-adv-x="530" 
d="M270 512q108 0 167.5 -73t59.5 -184v-39h-368q2 -69 41.5 -105.5t110.5 -36.5q90 0 136 64l68 -57q-74 -91 -204 -91q-115 0 -183 72.5t-68 187.5q0 114 67.5 188t172.5 74zM270 428q-61 0 -99 -36t-42 -96h271q-2 60 -36 96t-94 36zM423 737l-154 -167l-155 167h89
l66 -65l65 65h89z" />
    <glyph glyph-name="Gcircumflex" unicode="&#x11c;" horiz-adv-x="740" 
d="M403 748q155 0 260 -107l-65 -74q-80 87 -195 87q-118 0 -192.5 -81t-74.5 -206t77 -205.5t200 -80.5q95 0 166 52v165h-187v89h289v-304q-104 -96 -268 -96q-166 0 -273 108t-107 272q0 165 104.5 273t265.5 108zM397 926l159 -145h-91l-68 61l-68 -61h-91z" />
    <glyph glyph-name="gcircumflex" unicode="&#x11d;" horiz-adv-x="594" 
d="M262 512q107 0 161 -71l4 61h89v-489q0 -117 -70 -185t-187 -68q-143 0 -231 105l65 64q68 -82 165 -82q73 0 116.5 44.5t43.5 119.5v43q-55 -64 -156 -64q-103 0 -167.5 73.5t-64.5 187.5t64.5 187.5t167.5 73.5zM280 425q-66 0 -108.5 -48t-42.5 -126t42.5 -126
t108.5 -48q86 0 138 85v178q-52 85 -138 85zM281 743l154 -167h-89l-65 65l-66 -65h-89z" />
    <glyph glyph-name="Gbreve" unicode="&#x11e;" horiz-adv-x="740" 
d="M403 748q155 0 260 -107l-65 -74q-80 87 -195 87q-118 0 -192.5 -81t-74.5 -206t77 -205.5t200 -80.5q95 0 166 52v165h-187v89h289v-304q-104 -96 -268 -96q-166 0 -273 108t-107 272q0 165 104.5 273t265.5 108zM549 927q0 -63 -43.5 -104t-108.5 -41q-66 0 -109.5 41
t-43.5 104h71q0 -32 23 -55t59 -23t58.5 23t22.5 55h71z" />
    <glyph glyph-name="gbreve" unicode="&#x11f;" horiz-adv-x="594" 
d="M262 512q107 0 161 -71l4 61h89v-489q0 -117 -70 -185t-187 -68q-143 0 -231 105l65 64q68 -82 165 -82q73 0 116.5 44.5t43.5 119.5v43q-55 -64 -156 -64q-103 0 -167.5 73.5t-64.5 187.5t64.5 187.5t167.5 73.5zM280 425q-66 0 -108.5 -48t-42.5 -126t42.5 -126
t108.5 -48q86 0 138 85v178q-52 85 -138 85zM433 724q0 -64 -43.5 -106.5t-108.5 -42.5t-109 42.5t-44 106.5h72q0 -35 22.5 -58t58.5 -23q35 0 57.5 23t22.5 58h72z" />
    <glyph glyph-name="Gdotaccent" unicode="&#x120;" horiz-adv-x="740" 
d="M403 748q155 0 260 -107l-65 -74q-80 87 -195 87q-118 0 -192.5 -81t-74.5 -206t77 -205.5t200 -80.5q95 0 166 52v165h-187v89h289v-304q-104 -96 -268 -96q-166 0 -273 108t-107 272q0 165 104.5 273t265.5 108zM397 900q26 0 43 -17t17 -43t-17 -42.5t-43 -16.5
q-25 0 -42 16.5t-17 42.5t16.5 43t42.5 17z" />
    <glyph glyph-name="gdotaccent" unicode="&#x121;" horiz-adv-x="594" 
d="M262 512q107 0 161 -71l4 61h89v-489q0 -117 -70 -185t-187 -68q-143 0 -231 105l65 64q68 -82 165 -82q73 0 116.5 44.5t43.5 119.5v43q-55 -64 -156 -64q-103 0 -167.5 73.5t-64.5 187.5t64.5 187.5t167.5 73.5zM280 425q-66 0 -108.5 -48t-42.5 -126t42.5 -126
t108.5 -48q86 0 138 85v178q-52 85 -138 85zM280 722q28 0 46 -18t18 -46t-18 -45.5t-46 -17.5t-46 17.5t-18 45.5t18 46t46 18z" />
    <glyph glyph-name="Gcommaaccent" unicode="&#x122;" horiz-adv-x="740" 
d="M403 748q155 0 260 -107l-65 -74q-80 87 -195 87q-118 0 -192.5 -81t-74.5 -206t77 -205.5t200 -80.5q95 0 166 52v165h-187v89h289v-304q-104 -96 -268 -96q-166 0 -273 108t-107 272q0 165 104.5 273t265.5 108zM382 -51q30 0 49.5 -19.5t19.5 -49.5q0 -24 -12 -40
l-78 -137h-4v242q11 4 25 4z" />
    <glyph glyph-name="gcommaaccent" unicode="&#x123;" horiz-adv-x="594" 
d="M262 512q107 0 161 -71l4 61h89v-489q0 -117 -70 -185t-187 -68q-143 0 -231 105l65 64q68 -82 165 -82q73 0 116.5 44.5t43.5 119.5v43q-55 -64 -156 -64q-103 0 -167.5 73.5t-64.5 187.5t64.5 187.5t167.5 73.5zM280 425q-66 0 -108.5 -48t-42.5 -126t42.5 -126
t108.5 -48q86 0 138 85v178q-52 85 -138 85zM336 832v-264q-13 -5 -24 -5q-30 0 -50 20t-20 50q0 20 13 40l77 159h4z" />
    <glyph glyph-name="Hcircumflex" unicode="&#x124;" horiz-adv-x="733" 
d="M651 735v-735h-102v329h-365v-329h-102v735h102v-312h365v312h102zM366 916l159 -145h-91l-68 61l-68 -61h-91z" />
    <glyph glyph-name="hcircumflex" unicode="&#x125;" horiz-adv-x="583" 
d="M175 760v-313q60 65 154 65q89 0 139.5 -58.5t50.5 -156.5v-297h-98v291q0 57 -31.5 92.5t-84.5 35.5q-74 0 -130 -80v-339h-98v760h98zM132 926l159 -145h-91l-68 61l-68 -61h-91z" />
    <glyph glyph-name="Hbar" unicode="&#x126;" horiz-adv-x="758" 
d="M663 735v-132h83v-69h-83v-534h-102v324h-365v-324h-102v534h-82v69h82v132h102v-132h365v132h102zM196 414h365v120h-365v-120z" />
    <glyph glyph-name="hbar" unicode="&#x127;" horiz-adv-x="599" 
d="M190 760v-107h114v-69h-114v-137q60 65 154 65q90 0 140 -58.5t50 -156.5v-297h-98v291q0 57 -31.5 92.5t-84.5 35.5q-74 0 -130 -80v-339h-98v584h-92v69h92v107h98z" />
    <glyph glyph-name="Itilde" unicode="&#x128;" horiz-adv-x="266" 
d="M184 735v-735h-102v735h102zM72 915q29 0 49.5 -12t29.5 -27t22 -27t28 -12q32 0 32 72h64q0 -68 -28.5 -103.5t-73.5 -35.5q-29 0 -49 12t-28 27t-20.5 27t-28.5 12q-34 0 -34 -72h-65q0 70 28.5 104.5t73.5 34.5z" />
    <glyph glyph-name="itilde" unicode="&#x129;" horiz-adv-x="253" 
d="M65 717q29 0 49.5 -12t29.5 -27t22 -27t28 -12q32 0 32 72h64q0 -68 -28.5 -103.5t-73.5 -35.5q-29 0 -49 12t-28 27t-20.5 27t-28.5 12q-34 0 -34 -72h-65q0 70 28.5 104.5t73.5 34.5zM175 502v-502h-98v502h98z" />
    <glyph glyph-name="Imacron" unicode="&#x12a;" horiz-adv-x="266" 
d="M184 735v-735h-102v735h102zM263 857v-69h-260v69h260z" />
    <glyph glyph-name="imacron" unicode="&#x12b;" horiz-adv-x="253" 
d="M257 665v-68h-260v68h260zM175 502v-502h-98v502h98z" />
    <glyph glyph-name="Ibreve" unicode="&#x12c;" horiz-adv-x="266" 
d="M184 735v-735h-102v735h102zM286 917q0 -63 -43.5 -104t-108.5 -41q-66 0 -109.5 41t-43.5 104h71q0 -32 23 -55t59 -23t58.5 23t22.5 55h71z" />
    <glyph glyph-name="ibreve" unicode="&#x12d;" horiz-adv-x="253" 
d="M279 724q0 -64 -43.5 -106.5t-108.5 -42.5t-109 42.5t-44 106.5h72q0 -35 22.5 -58t58.5 -23q35 0 57.5 23t22.5 58h72zM175 502v-502h-98v502h98z" />
    <glyph glyph-name="Iogonek" unicode="&#x12e;" horiz-adv-x="266" 
d="M184 735v-735h-43q-45 -18 -45 -64q0 -32 19.5 -49.5t49.5 -17.5q18 0 34 8l21 -57q-21 -10 -57 -10q-58 0 -95.5 33.5t-37.5 92.5q0 63 52 97v702h102z" />
    <glyph glyph-name="iogonek" unicode="&#x12f;" horiz-adv-x="253" 
d="M175 502v-502h-20q-45 -18 -45 -64q0 -32 19.5 -49.5t49.5 -17.5q18 0 34 8l21 -57q-21 -10 -57 -10q-58 0 -95.5 33.5t-37.5 92.5q0 52 33 82v484h98zM127 728q27 0 45.5 -18.5t18.5 -45.5q0 -28 -18.5 -46t-45.5 -18q-28 0 -46 18t-18 46q0 27 18 45.5t46 18.5z" />
    <glyph glyph-name="Idotaccent" unicode="&#x130;" horiz-adv-x="266" 
d="M184 735v-735h-102v735h102zM132 890q26 0 43 -17t17 -43t-17 -42.5t-43 -16.5t-42.5 16.5t-16.5 42.5t16.5 43t42.5 17z" />
    <glyph glyph-name="dotlessi" unicode="&#x131;" horiz-adv-x="253" 
d="M175 502v-502h-98v502h98z" />
    <glyph glyph-name="Jcircumflex" unicode="&#x134;" horiz-adv-x="540" 
d="M469 735v-525q0 -101 -61.5 -162t-161.5 -61q-95 0 -160.5 63.5t-65.5 175.5h100q0 -68 33 -106.5t90 -38.5q58 0 91 35.5t33 98.5v520h102zM414 916l159 -145h-91l-68 61l-68 -61h-91z" />
    <glyph glyph-name="jcircumflex" unicode="&#x135;" horiz-adv-x="253" 
d="M175 502v-559q0 -79 -52 -131t-133 -52q-92 0 -152 62l64 66q37 -41 86 -41q40 0 64.5 24.5t24.5 64.5v566h98zM127 743l154 -167h-89l-65 65l-66 -65h-89z" />
    <glyph glyph-name="Kcommaaccent" unicode="&#x136;" horiz-adv-x="667" 
d="M605 735l-211 -354l264 -381h-123l-199 289l-175 -289h-79v735h102v-529l301 529h120zM322 -51q30 0 49.5 -19.5t19.5 -49.5q0 -24 -12 -40l-78 -137h-4v242q11 4 25 4z" />
    <glyph glyph-name="kcommaaccent" unicode="&#x137;" horiz-adv-x="541" 
d="M175 760v-580l217 322h117l-154 -220l179 -282h-115l-126 201l-137 -201h-79v760h98zM268 -51q30 0 49.5 -19.5t19.5 -49.5q0 -24 -12 -40l-78 -137h-4v242q11 4 25 4z" />
    <glyph glyph-name="Lacute" unicode="&#x139;" horiz-adv-x="544" 
d="M184 735v-644h350v-91h-452v735h102zM325 887l-146 -115h-108l133 115h121z" />
    <glyph glyph-name="lacute" unicode="&#x13a;" horiz-adv-x="253" 
d="M175 760v-760h-98v760h98zM325 907l-146 -115h-108l133 115h121z" />
    <glyph glyph-name="Lcommaaccent" unicode="&#x13b;" horiz-adv-x="544" 
d="M184 735v-644h350v-91h-452v735h102zM285 -51q30 0 49.5 -19.5t19.5 -49.5q0 -24 -12 -40l-78 -137h-4v242q11 4 25 4z" />
    <glyph glyph-name="lcommaaccent" unicode="&#x13c;" horiz-adv-x="253" 
d="M175 760v-760h-98v760h98zM105 -51q30 0 49.5 -19.5t19.5 -49.5q0 -24 -12 -40l-78 -137h-4v242q11 4 25 4z" />
    <glyph glyph-name="Lcaron" unicode="&#x13d;" horiz-adv-x="544" 
d="M184 735v-644h350v-91h-452v735h102zM454 752q30 0 49.5 -19.5t19.5 -49.5q0 -20 -12 -41l-78 -159h-4v265q11 4 25 4z" />
    <glyph glyph-name="lcaron" unicode="&#x13e;" horiz-adv-x="412" 
d="M175 760v-760h-98v760h98zM302 752q30 0 49.5 -19.5t19.5 -49.5q0 -20 -12 -41l-78 -159h-4v265q11 4 25 4z" />
    <glyph glyph-name="Ldot" unicode="&#x13f;" horiz-adv-x="544" 
d="M184 735v-644h350v-91h-452v735h102zM402 401q28 0 47 -18.5t19 -47.5q0 -28 -19 -46.5t-47 -18.5t-47 18.5t-19 46.5q0 29 19 47.5t47 18.5z" />
    <glyph glyph-name="ldot" unicode="&#x140;" horiz-adv-x="438" 
d="M175 760v-760h-98v760h98zM341 322q29 0 47.5 -19t18.5 -47t-19 -46.5t-47 -18.5t-47 18.5t-19 46.5t18.5 47t47.5 19z" />
    <glyph glyph-name="Lslash" unicode="&#x141;" horiz-adv-x="571" 
d="M210 735v-351l103 51l29 -72l-132 -66v-206h350v-91h-452v246l-81 -40l-29 73l110 54v402h102z" />
    <glyph glyph-name="lslash" unicode="&#x142;" horiz-adv-x="275" 
d="M186 760v-354l77 38l26 -62l-103 -51v-331h-98v282l-75 -37l-27 63l102 50v402h98z" />
    <glyph glyph-name="Nacute" unicode="&#x143;" horiz-adv-x="729" 
d="M647 735v-748h-4l-459 507v-494h-102v748h4l459 -506v493h102zM554 887l-146 -115h-108l133 115h121z" />
    <glyph glyph-name="nacute" unicode="&#x144;" horiz-adv-x="583" 
d="M329 512q89 0 139.5 -58.5t50.5 -156.5v-297h-98v291q0 57 -31.5 92.5t-84.5 35.5q-74 0 -130 -80v-339h-98v502h89l4 -61q56 71 159 71zM493 707l-155 -131h-99l138 131h116z" />
    <glyph glyph-name="Ncommaaccent" unicode="&#x145;" horiz-adv-x="729" 
d="M647 735v-748h-4l-459 507v-494h-102v748h4l459 -506v493h102zM363 -51q30 0 49.5 -19.5t19.5 -49.5q0 -24 -12 -40l-78 -137h-4v242q11 4 25 4z" />
    <glyph glyph-name="ncommaaccent" unicode="&#x146;" horiz-adv-x="583" 
d="M329 512q89 0 139.5 -58.5t50.5 -156.5v-297h-98v291q0 57 -31.5 92.5t-84.5 35.5q-74 0 -130 -80v-339h-98v502h89l4 -61q56 71 159 71zM277 -51q30 0 49.5 -19.5t19.5 -49.5q0 -24 -12 -40l-78 -137h-4v242q11 4 25 4z" />
    <glyph glyph-name="Ncaron" unicode="&#x147;" horiz-adv-x="729" 
d="M647 735v-748h-4l-459 507v-494h-102v748h4l459 -506v493h102zM523 907l-159 -144l-159 144h91l68 -60l68 60h91z" />
    <glyph glyph-name="ncaron" unicode="&#x148;" horiz-adv-x="583" 
d="M329 512q89 0 139.5 -58.5t50.5 -156.5v-297h-98v291q0 57 -31.5 92.5t-84.5 35.5q-74 0 -130 -80v-339h-98v502h89l4 -61q56 71 159 71zM451 737l-154 -167l-155 167h89l66 -65l65 65h89z" />
    <glyph glyph-name="Eng" unicode="&#x14a;" horiz-adv-x="729" 
d="M647 735v-752q0 -102 -61.5 -162.5t-163.5 -60.5v101q58 0 90.5 33.5t32.5 95.5v105l-361 399v-494h-102v748h4l459 -506v493h102z" />
    <glyph glyph-name="eng" unicode="&#x14b;" horiz-adv-x="583" 
d="M329 512q89 0 139.5 -58.5t50.5 -156.5v-354q0 -79 -53.5 -131t-134.5 -52v91q40 0 65 23t25 62v355q0 57 -31.5 92.5t-84.5 35.5q-74 0 -130 -80v-339h-98v502h89l4 -61q56 71 159 71z" />
    <glyph glyph-name="Omacron" unicode="&#x14c;" horiz-adv-x="806" 
d="M403 748q160 0 265.5 -108.5t105.5 -272.5q0 -165 -105.5 -272.5t-265.5 -107.5q-161 0 -265.5 107.5t-104.5 272.5q0 164 105 272.5t265 108.5zM403 654q-117 0 -192 -81t-75 -206t75 -205.5t192 -80.5t192 80.5t75 205.5t-75 206t-192 81zM533 867v-69h-260v69h260z
" />
    <glyph glyph-name="omacron" unicode="&#x14d;" 
d="M287 512q112 0 185 -74.5t73 -187.5t-73 -186.5t-185 -73.5t-184.5 73.5t-72.5 186.5t72.5 187.5t184.5 74.5zM287 425q-69 0 -113.5 -49.5t-44.5 -125.5q0 -75 44.5 -124t113.5 -49t114 49t45 124q0 76 -45 125.5t-114 49.5zM417 665v-68h-260v68h260z" />
    <glyph glyph-name="Obreve" unicode="&#x14e;" horiz-adv-x="806" 
d="M403 748q160 0 265.5 -108.5t105.5 -272.5q0 -165 -105.5 -272.5t-265.5 -107.5q-161 0 -265.5 107.5t-104.5 272.5q0 164 105 272.5t265 108.5zM403 654q-117 0 -192 -81t-75 -206t75 -205.5t192 -80.5t192 80.5t75 205.5t-75 206t-192 81zM555 927q0 -63 -43.5 -104
t-108.5 -41q-66 0 -109.5 41t-43.5 104h71q0 -32 23 -55t59 -23t58.5 23t22.5 55h71z" />
    <glyph glyph-name="obreve" unicode="&#x14f;" 
d="M287 512q112 0 185 -74.5t73 -187.5t-73 -186.5t-185 -73.5t-184.5 73.5t-72.5 186.5t72.5 187.5t184.5 74.5zM287 425q-69 0 -113.5 -49.5t-44.5 -125.5q0 -75 44.5 -124t113.5 -49t114 49t45 124q0 76 -45 125.5t-114 49.5zM439 724q0 -64 -43.5 -106.5t-108.5 -42.5
t-109 42.5t-44 106.5h72q0 -35 22.5 -58t58.5 -23q35 0 57.5 23t22.5 58h72z" />
    <glyph glyph-name="Ohungarumlaut" unicode="&#x150;" horiz-adv-x="806" 
d="M403 748q160 0 265.5 -108.5t105.5 -272.5q0 -165 -105.5 -272.5t-265.5 -107.5q-161 0 -265.5 107.5t-104.5 272.5q0 164 105 272.5t265 108.5zM403 654q-117 0 -192 -81t-75 -206t75 -205.5t192 -80.5t192 80.5t75 205.5t-75 206t-192 81zM457 903l-98 -119h-85l96 119
h87zM619 903l-98 -119h-85l96 119h87z" />
    <glyph glyph-name="ohungarumlaut" unicode="&#x151;" 
d="M287 512q112 0 185 -74.5t73 -187.5t-73 -186.5t-185 -73.5t-184.5 73.5t-72.5 186.5t72.5 187.5t184.5 74.5zM287 425q-69 0 -113.5 -49.5t-44.5 -125.5q0 -75 44.5 -124t113.5 -49t114 49t45 124q0 76 -45 125.5t-114 49.5zM342 715l-107 -144h-87l107 144h87zM510 715
l-106 -144h-88l107 144h87z" />
    <glyph glyph-name="OE" unicode="&#x152;" horiz-adv-x="1161" 
d="M1126 735v-94h-353v-223h310v-91h-310v-233h361v-94h-463v113q-102 -126 -268 -126q-161 0 -265.5 107.5t-104.5 272.5q0 164 105 272.5t265 108.5q165 0 268 -127v114h455zM403 654q-117 0 -192 -81t-75 -206t75 -205.5t192 -80.5t192 80.5t75 205.5t-75 206t-192 81z
" />
    <glyph glyph-name="oe" unicode="&#x153;" horiz-adv-x="950" 
d="M690 512q108 0 167.5 -73t59.5 -184v-39h-368q2 -69 41.5 -105.5t110.5 -36.5q90 0 136 64l68 -57q-74 -91 -204 -91q-139 0 -206 101q-74 -101 -208 -101q-112 0 -184.5 73.5t-72.5 186.5t72.5 187.5t184.5 74.5q65 0 119 -27.5t89 -75.5q69 103 195 103zM287 425
q-69 0 -113.5 -49.5t-44.5 -125.5q0 -75 44.5 -124t113.5 -49t113.5 49t44.5 124q0 76 -44.5 125.5t-113.5 49.5zM690 428q-61 0 -99 -36t-42 -96h271q-2 60 -36 96t-94 36z" />
    <glyph glyph-name="Racute" unicode="&#x154;" horiz-adv-x="632" 
d="M324 735q113 0 186 -60.5t73 -167.5q0 -78 -40 -132t-109 -79l184 -296h-120l-172 279h-144v-279h-102v735h244zM315 645h-133v-276h133q77 0 121 35.5t44 102.5q0 66 -44.5 102t-120.5 36zM496 887l-146 -115h-108l133 115h121z" />
    <glyph glyph-name="racute" unicode="&#x155;" horiz-adv-x="334" 
d="M320 512v-98h-9q-78 0 -136 -84v-330h-98v502h89l5 -68q49 78 149 78zM407 707l-155 -131h-99l138 131h116z" />
    <glyph glyph-name="Rcommaaccent" unicode="&#x156;" horiz-adv-x="632" 
d="M324 735q113 0 186 -60.5t73 -167.5q0 -78 -40 -132t-109 -79l184 -296h-120l-172 279h-144v-279h-102v735h244zM315 645h-133v-276h133q77 0 121 35.5t44 102.5q0 66 -44.5 102t-120.5 36zM300 -51q30 0 49.5 -19.5t19.5 -49.5q0 -24 -12 -40l-78 -137h-4v242q11 4 25 4
z" />
    <glyph glyph-name="rcommaaccent" unicode="&#x157;" horiz-adv-x="334" 
d="M320 512v-98h-9q-78 0 -136 -84v-330h-98v502h89l5 -68q49 78 149 78zM126 -51q30 0 49.5 -19.5t19.5 -49.5q0 -24 -12 -40l-78 -137h-4v242q11 4 25 4z" />
    <glyph glyph-name="Rcaron" unicode="&#x158;" horiz-adv-x="632" 
d="M324 735q113 0 186 -60.5t73 -167.5q0 -78 -40 -132t-109 -79l184 -296h-120l-172 279h-144v-279h-102v735h244zM315 645h-133v-276h133q77 0 121 35.5t44 102.5q0 66 -44.5 102t-120.5 36zM464 907l-159 -144l-159 144h91l68 -60l68 60h91z" />
    <glyph glyph-name="rcaron" unicode="&#x159;" horiz-adv-x="334" 
d="M320 512v-98h-9q-78 0 -136 -84v-330h-98v502h89l5 -68q49 78 149 78zM365 737l-154 -167l-155 167h89l66 -65l65 65h89z" />
    <glyph glyph-name="Sacute" unicode="&#x15a;" horiz-adv-x="585" 
d="M285 748q141 0 239 -78l-54 -84q-82 68 -186 68q-63 0 -100.5 -29t-37.5 -86q0 -48 35.5 -72t130.5 -44q133 -29 189 -78.5t56 -134.5q0 -100 -71 -161.5t-191 -61.5q-161 0 -269 94l57 85q39 -39 97 -62t118 -23q71 0 114 31.5t43 89.5q0 48 -39 75t-133 47
q-132 29 -185.5 78t-53.5 133q0 97 66 155t175 58zM479 891l-146 -115h-108l133 115h121z" />
    <glyph glyph-name="sacute" unicode="&#x15b;" horiz-adv-x="457" 
d="M239 512q100 0 167 -55l-42 -76q-57 44 -125 44q-92 0 -92 -58q0 -29 21.5 -41.5t83.5 -27.5q88 -21 129 -58t41 -94q0 -71 -54.5 -113.5t-146.5 -42.5q-117 0 -191 61l45 78q60 -52 147 -52q101 0 101 63q0 30 -23.5 45t-83.5 29q-89 20 -128 54t-39 93q0 71 51 111
t139 40zM428 707l-155 -131h-99l138 131h116z" />
    <glyph glyph-name="Scircumflex" unicode="&#x15c;" horiz-adv-x="585" 
d="M285 748q141 0 239 -78l-54 -84q-82 68 -186 68q-63 0 -100.5 -29t-37.5 -86q0 -48 35.5 -72t130.5 -44q133 -29 189 -78.5t56 -134.5q0 -100 -71 -161.5t-191 -61.5q-161 0 -269 94l57 85q39 -39 97 -62t118 -23q71 0 114 31.5t43 89.5q0 48 -39 75t-133 47
q-132 29 -185.5 78t-53.5 133q0 97 66 155t175 58zM288 920l159 -145h-91l-68 61l-68 -61h-91z" />
    <glyph glyph-name="scircumflex" unicode="&#x15d;" horiz-adv-x="457" 
d="M239 512q100 0 167 -55l-42 -76q-57 44 -125 44q-92 0 -92 -58q0 -29 21.5 -41.5t83.5 -27.5q88 -21 129 -58t41 -94q0 -71 -54.5 -113.5t-146.5 -42.5q-117 0 -191 61l45 78q60 -52 147 -52q101 0 101 63q0 30 -23.5 45t-83.5 29q-89 20 -128 54t-39 93q0 71 51 111
t139 40zM232 743l154 -167h-89l-65 65l-66 -65h-89z" />
    <glyph glyph-name="Scedilla" unicode="&#x15e;" horiz-adv-x="585" 
d="M285 748q141 0 239 -78l-54 -84q-82 68 -186 68q-63 0 -100.5 -29t-37.5 -86q0 -48 35.5 -72t130.5 -44q133 -29 189 -78.5t56 -134.5q0 -94 -63 -154.5t-171 -67.5l-7 -44q42 -4 66 -28.5t24 -65.5q0 -46 -29 -74t-80 -28q-64 0 -99 40l39 45q24 -28 57 -28q44 0 44 42
q0 38 -41 42q-26 3 -48 -7l-3 4l18 102q-141 9 -238 93l57 85q39 -39 97 -62t118 -23q71 0 114 31.5t43 89.5q0 48 -39 75t-133 47q-132 29 -185.5 78t-53.5 133q0 97 66 155t175 58z" />
    <glyph glyph-name="scedilla" unicode="&#x15f;" horiz-adv-x="457" 
d="M239 512q100 0 167 -55l-42 -76q-57 44 -125 44q-92 0 -92 -58q0 -29 21.5 -41.5t83.5 -27.5q88 -21 129 -58t41 -94q0 -65 -45.5 -106t-125.5 -48l-7 -48q42 -4 66 -28.5t24 -65.5q0 -46 -29 -74t-80 -28q-64 0 -99 40l39 45q24 -28 57 -28q44 0 44 42q0 38 -41 42
q-26 3 -48 -7l-3 4l18 105q-100 8 -162 60l45 78q60 -52 147 -52q101 0 101 63q0 30 -23.5 45t-83.5 29q-89 20 -128 54t-39 93q0 71 51 111t139 40z" />
    <glyph glyph-name="Scaron" unicode="&#x160;" horiz-adv-x="585" 
d="M285 748q141 0 239 -78l-54 -84q-82 68 -186 68q-63 0 -100.5 -29t-37.5 -86q0 -48 35.5 -72t130.5 -44q133 -29 189 -78.5t56 -134.5q0 -100 -71 -161.5t-191 -61.5q-161 0 -269 94l57 85q39 -39 97 -62t118 -23q71 0 114 31.5t43 89.5q0 48 -39 75t-133 47
q-132 29 -185.5 78t-53.5 133q0 97 66 155t175 58zM447 911l-159 -144l-159 144h91l68 -60l68 60h91z" />
    <glyph glyph-name="scaron" unicode="&#x161;" horiz-adv-x="457" 
d="M239 512q100 0 167 -55l-42 -76q-57 44 -125 44q-92 0 -92 -58q0 -29 21.5 -41.5t83.5 -27.5q88 -21 129 -58t41 -94q0 -71 -54.5 -113.5t-146.5 -42.5q-117 0 -191 61l45 78q60 -52 147 -52q101 0 101 63q0 30 -23.5 45t-83.5 29q-89 20 -128 54t-39 93q0 71 51 111
t139 40zM386 737l-154 -167l-155 167h89l66 -65l65 65h89z" />
    <glyph glyph-name="Tcommaaccent" unicode="&#x162;" horiz-adv-x="649" 
d="M633 735v-91h-258v-644h-102v644h-257v91h617zM304 -51q30 0 49.5 -19.5t19.5 -49.5q0 -24 -12 -40l-78 -137h-4v242q11 4 25 4z" />
    <glyph glyph-name="tcommaaccent" unicode="&#x163;" horiz-adv-x="398" 
d="M208 672v-170h158v-84h-158v-249q0 -43 23.5 -66.5t62.5 -23.5q45 0 72 16l28 -77q-45 -28 -108 -28q-82 0 -129 46t-47 132v250h-98v84h98v170h98zM181 -51q30 0 49.5 -19.5t19.5 -49.5q0 -24 -12 -40l-78 -137h-4v242q11 4 25 4z" />
    <glyph glyph-name="Tcaron" unicode="&#x164;" horiz-adv-x="649" 
d="M633 735v-91h-258v-644h-102v644h-257v91h617zM482 907l-159 -144l-159 144h91l68 -60l68 60h91z" />
    <glyph glyph-name="tcaron" unicode="&#x165;" horiz-adv-x="557" 
d="M208 672v-170h158v-84h-158v-249q0 -43 23.5 -66.5t62.5 -23.5q45 0 72 16l28 -77q-45 -28 -108 -28q-82 0 -129 46t-47 132v250h-98v84h98v170h98zM447 752q30 0 49.5 -19.5t19.5 -49.5q0 -20 -12 -41l-78 -159h-4v265q11 4 25 4z" />
    <glyph glyph-name="Tbar" unicode="&#x166;" horiz-adv-x="649" 
d="M633 735v-91h-258v-256h150v-69h-150v-319h-102v319h-149v69h149v256h-257v91h617z" />
    <glyph glyph-name="tbar" unicode="&#x167;" horiz-adv-x="398" 
d="M208 672v-170h158v-69h-158v-107h158v-68h-158v-89q0 -43 25 -66.5t68 -23.5q45 0 69 14l21 -79q-38 -24 -100 -24q-84 0 -132.5 46t-48.5 132v90h-98v68h98v107h-98v69h98v170h98z" />
    <glyph glyph-name="Utilde" unicode="&#x168;" horiz-adv-x="689" 
d="M616 735v-476q0 -126 -70 -199t-201 -73q-132 0 -202 73t-70 199v476h102v-470q0 -85 43.5 -134.5t126.5 -49.5q82 0 125.5 49.5t43.5 134.5v470h102zM283 915q29 0 49.5 -12t29.5 -27t22 -27t28 -12q32 0 32 72h64q0 -68 -28.5 -103.5t-73.5 -35.5q-29 0 -49 12t-28 27
t-20.5 27t-28.5 12q-34 0 -34 -72h-65q0 70 28.5 104.5t73.5 34.5z" />
    <glyph glyph-name="utilde" unicode="&#x169;" 
d="M498 502v-502h-89l-4 61q-56 -71 -161 -71q-85 0 -132 57.5t-47 155.5v299h98v-294q0 -56 28.5 -90.5t77.5 -34.5q43 0 73.5 21t57.5 59v339h98zM219 717q29 0 49.5 -12t29.5 -27t22 -27t28 -12q32 0 32 72h64q0 -68 -28.5 -103.5t-73.5 -35.5q-29 0 -49 12t-28 27
t-20.5 27t-28.5 12q-34 0 -34 -72h-65q0 70 28.5 104.5t73.5 34.5z" />
    <glyph glyph-name="Umacron" unicode="&#x16a;" horiz-adv-x="689" 
d="M616 735v-476q0 -126 -70 -199t-201 -73q-132 0 -202 73t-70 199v476h102v-470q0 -85 43.5 -134.5t126.5 -49.5q82 0 125.5 49.5t43.5 134.5v470h102zM474 857v-69h-260v69h260z" />
    <glyph glyph-name="umacron" unicode="&#x16b;" 
d="M498 502v-502h-89l-4 61q-56 -71 -161 -71q-85 0 -132 57.5t-47 155.5v299h98v-294q0 -56 28.5 -90.5t77.5 -34.5q43 0 73.5 21t57.5 59v339h98zM410 665v-68h-260v68h260z" />
    <glyph glyph-name="Ubreve" unicode="&#x16c;" horiz-adv-x="689" 
d="M616 735v-476q0 -126 -70 -199t-201 -73q-132 0 -202 73t-70 199v476h102v-470q0 -85 43.5 -134.5t126.5 -49.5q82 0 125.5 49.5t43.5 134.5v470h102zM496 917q0 -63 -43.5 -104t-108.5 -41q-66 0 -109.5 41t-43.5 104h71q0 -32 23 -55t59 -23t58.5 23t22.5 55h71z" />
    <glyph glyph-name="ubreve" unicode="&#x16d;" 
d="M498 502v-502h-89l-4 61q-56 -71 -161 -71q-85 0 -132 57.5t-47 155.5v299h98v-294q0 -56 28.5 -90.5t77.5 -34.5q43 0 73.5 21t57.5 59v339h98zM433 724q0 -64 -43.5 -106.5t-108.5 -42.5t-109 42.5t-44 106.5h72q0 -35 22.5 -58t58.5 -23q35 0 57.5 23t22.5 58h72z" />
    <glyph glyph-name="Uring" unicode="&#x16e;" horiz-adv-x="689" 
d="M616 735v-476q0 -126 -70 -199t-201 -73q-132 0 -202 73t-70 199v476h102v-470q0 -85 43.5 -134.5t126.5 -49.5q82 0 125.5 49.5t43.5 134.5v470h102zM345 986q47 0 78 -31t31 -77q0 -47 -31 -77.5t-78 -30.5t-78.5 30.5t-31.5 77.5q0 46 31.5 77t78.5 31zM345 931
q-22 0 -37 -15.5t-15 -37.5q0 -23 15 -37.5t37 -14.5t37 14.5t15 37.5q0 22 -15 37.5t-37 15.5z" />
    <glyph glyph-name="uring" unicode="&#x16f;" 
d="M498 502v-502h-89l-4 61q-56 -71 -161 -71q-85 0 -132 57.5t-47 155.5v299h98v-294q0 -56 28.5 -90.5t77.5 -34.5q43 0 73.5 21t57.5 59v339h98zM281 787q47 0 78 -31.5t31 -77.5t-31 -76.5t-78 -30.5t-78.5 30.5t-31.5 76.5q0 47 31.5 78t78.5 31zM281 731
q-22 0 -37 -15.5t-15 -37.5t15 -36.5t37 -14.5t37 14.5t15 36.5t-15 37.5t-37 15.5z" />
    <glyph glyph-name="Uhungarumlaut" unicode="&#x170;" horiz-adv-x="689" 
d="M616 735v-476q0 -126 -70 -199t-201 -73q-132 0 -202 73t-70 199v476h102v-470q0 -85 43.5 -134.5t126.5 -49.5q82 0 125.5 49.5t43.5 134.5v470h102zM399 893l-98 -119h-85l96 119h87zM561 893l-98 -119h-85l96 119h87z" />
    <glyph glyph-name="uhungarumlaut" unicode="&#x171;" 
d="M498 502v-502h-89l-4 61q-56 -71 -161 -71q-85 0 -132 57.5t-47 155.5v299h98v-294q0 -56 28.5 -90.5t77.5 -34.5q43 0 73.5 21t57.5 59v339h98zM336 715l-107 -144h-87l107 144h87zM504 715l-106 -144h-88l107 144h87z" />
    <glyph glyph-name="Uogonek" unicode="&#x172;" horiz-adv-x="689" 
d="M616 735v-476q0 -98 -42.5 -164.5t-123.5 -92.5q-32 -19 -32 -58q0 -32 19.5 -49.5t49.5 -17.5q18 0 34 8l21 -57q-21 -10 -57 -10q-58 0 -95.5 33.5t-37.5 92.5q0 26 7 43h-14q-132 0 -202 73t-70 199v476h102v-470q0 -85 43.5 -134.5t126.5 -49.5q82 0 125.5 49.5
t43.5 134.5v470h102z" />
    <glyph glyph-name="uogonek" unicode="&#x173;" 
d="M498 502v-502h-13q-45 -18 -45 -64q0 -32 19.5 -49.5t49.5 -17.5q18 0 34 8l21 -57q-21 -10 -57 -10q-58 0 -95.5 33.5t-37.5 92.5q0 51 34 82l-3 43q-56 -71 -161 -71q-85 0 -132 57.5t-47 155.5v299h98v-294q0 -56 28.5 -90.5t77.5 -34.5q43 0 73.5 21t57.5 59v339h98z
" />
    <glyph glyph-name="Wcircumflex" unicode="&#x174;" horiz-adv-x="978" 
d="M968 735l-288 -747h-4l-187 479l-187 -479h-4l-288 747h113l177 -478l187 478h4l187 -478l177 478h113zM488 916l159 -145h-91l-68 61l-68 -61h-91z" />
    <glyph glyph-name="wcircumflex" unicode="&#x175;" horiz-adv-x="764" 
d="M753 502l-223 -512h-4l-144 298l-145 -298h-4l-223 512h110l122 -291l138 291h4l138 -291l122 291h109zM382 743l154 -167h-89l-65 65l-66 -65h-89z" />
    <glyph glyph-name="Ycircumflex" unicode="&#x176;" horiz-adv-x="660" 
d="M653 734l-272 -423v-311h-102v309l-272 425h119l204 -322l203 322h120zM329 916l159 -145h-91l-68 61l-68 -61h-91z" />
    <glyph glyph-name="ycircumflex" unicode="&#x177;" horiz-adv-x="552" 
d="M537 502l-367 -732h-112l165 312l-207 420h109l151 -310l151 310h110zM268 743l154 -167h-89l-65 65l-66 -65h-89z" />
    <glyph glyph-name="Ydieresis" unicode="&#x178;" horiz-adv-x="660" 
d="M653 734l-272 -423v-311h-102v309l-272 425h119l204 -322l203 322h120zM244 883q24 0 39.5 -15.5t15.5 -38.5t-15.5 -38.5t-39.5 -15.5q-23 0 -38.5 15.5t-15.5 38.5t15.5 38.5t38.5 15.5zM415 883q23 0 39 -15.5t16 -38.5t-16 -38.5t-39 -15.5t-38.5 15.5t-15.5 38.5
t15.5 38.5t38.5 15.5z" />
    <glyph glyph-name="Zacute" unicode="&#x179;" horiz-adv-x="580" 
d="M542 735v-4l-355 -638h366v-93h-528v4l358 638h-342v93h501zM479 887l-146 -115h-108l133 115h121z" />
    <glyph glyph-name="zacute" unicode="&#x17a;" horiz-adv-x="453" 
d="M429 502v-4l-250 -414h249v-84h-405v4l249 414h-234v84h391zM422 707l-155 -131h-99l138 131h116z" />
    <glyph glyph-name="Zdotaccent" unicode="&#x17b;" horiz-adv-x="580" 
d="M542 735v-4l-355 -638h366v-93h-528v4l358 638h-342v93h501zM288 890q26 0 43 -17t17 -43t-17 -42.5t-43 -16.5t-42.5 16.5t-16.5 42.5t16.5 43t42.5 17z" />
    <glyph glyph-name="zdotaccent" unicode="&#x17c;" horiz-adv-x="453" 
d="M429 502v-4l-250 -414h249v-84h-405v4l249 414h-234v84h391zM225 722q28 0 46 -18t18 -46t-18 -45.5t-46 -17.5t-46 17.5t-18 45.5t18 46t46 18z" />
    <glyph glyph-name="Zcaron" unicode="&#x17d;" horiz-adv-x="580" 
d="M542 735v-4l-355 -638h366v-93h-528v4l358 638h-342v93h501zM447 907l-159 -144l-159 144h91l68 -60l68 60h91z" />
    <glyph glyph-name="zcaron" unicode="&#x17e;" horiz-adv-x="453" 
d="M429 502v-4l-250 -414h249v-84h-405v4l249 414h-234v84h391zM380 737l-154 -167l-155 167h89l66 -65l65 65h89z" />
    <glyph glyph-name="florin" unicode="&#x192;" horiz-adv-x="378" 
d="M312 754q66 0 110 -36l-38 -78q-27 27 -67 27q-36 0 -57 -25t-26 -70l-8 -70h112l-9 -84h-112l-54 -491q-8 -74 -55.5 -120.5t-120.5 -46.5q-67 0 -110 35l38 78q26 -26 67 -26q73 0 83 95l52 476h-75l9 84h76l9 84q8 75 55 121.5t121 46.5z" />
    <glyph glyph-name="Aringacute" unicode="&#x1fa;" horiz-adv-x="698" 
d="M351 748l338 -748h-109l-66 150h-330l-66 -150h-109l338 748h4zM516 1075l-121 -102q29 -13 46 -39.5t17 -59.5q0 -46 -31 -76.5t-78 -30.5t-78.5 30.5t-31.5 76.5q0 40 24 70h-1l138 131h116zM349 523l-127 -284h254zM349 927q-22 0 -37 -15.5t-15 -37.5t15 -36.5
t37 -14.5t37 14.5t15 36.5t-15 37.5t-37 15.5z" />
    <glyph glyph-name="aringacute" unicode="&#x1fb;" horiz-adv-x="593" 
d="M262 512q107 0 161 -71l4 61h89v-502h-89l-4 61q-54 -71 -161 -71q-103 0 -167.5 73.5t-64.5 187.5t64.5 187.5t167.5 73.5zM280 425q-66 0 -108.5 -48t-42.5 -126t42.5 -126t108.5 -48q86 0 138 85v178q-52 85 -138 85zM459 858l-121 -96q59 -29 59 -97q0 -46 -31 -76.5
t-78 -30.5t-78.5 30.5t-31.5 76.5q0 45 31 78h-4l133 115h121zM288 718q-22 0 -37 -15.5t-15 -37.5t15 -36.5t37 -14.5t37 14.5t15 36.5t-15 37.5t-37 15.5z" />
    <glyph glyph-name="AEacute" unicode="&#x1fc;" horiz-adv-x="870" 
d="M831 735v-94h-410l93 -225h274v-87h-238l98 -235h191v-94h-264l-64 155h-325l-63 -155h-114l319 735h503zM349 553l-130 -318h260zM693 887l-146 -115h-108l133 115h121z" />
    <glyph glyph-name="aeacute" unicode="&#x1fd;" horiz-adv-x="944" 
d="M680 512q108 0 169.5 -72t61.5 -188v-36h-377q11 -142 156 -142q90 0 141 64l68 -57q-76 -91 -206 -91q-127 0 -179 71l-4 -61h-83l-4 61q-54 -71 -161 -71q-103 0 -167.5 73.5t-64.5 187.5t64.5 187.5t167.5 73.5q107 0 161 -71l4 61h84l4 -61q66 71 165 71zM676 428
q-58 0 -97.5 -33t-45.5 -99h281q-3 60 -39 96t-99 36zM280 425q-66 0 -108.5 -48t-42.5 -126t42.5 -126t108.5 -48q86 0 138 85v178q-52 85 -138 85zM666 707l-155 -131h-99l138 131h116z" />
    <glyph glyph-name="Oslashacute" unicode="&#x1fe;" horiz-adv-x="806" 
d="M403 748q79 0 148 -29l53 96h89l-73 -134q72 -52 113 -133.5t41 -180.5q0 -165 -105.5 -272.5t-265.5 -107.5q-80 0 -148 28l-52 -95h-90l73 133q-72 51 -112.5 132.5t-40.5 181.5q0 164 105 272.5t265 108.5zM403 654q-117 0 -192 -81t-75 -206q0 -146 97 -227l272 494
q-48 20 -102 20zM670 367q0 145 -98 227l-271 -494q45 -19 102 -19q117 0 192 80.5t75 205.5zM592 897l-146 -115h-108l133 115h121z" />
    <glyph glyph-name="oslashacute" unicode="&#x1ff;" 
d="M287 512q54 0 99 -18l43 78h66l-57 -106q50 -35 78.5 -91.5t28.5 -124.5q0 -113 -73 -186.5t-185 -73.5q-48 0 -97 17l-42 -77h-67l56 104q-50 34 -78.5 90.5t-28.5 125.5q0 113 72.5 187.5t184.5 74.5zM287 430q-71 0 -117 -51t-46 -129q0 -87 56 -138l166 307
q-28 11 -59 11zM450 250q0 85 -55 137l-165 -305q24 -10 57 -10q71 0 117 50.5t46 127.5zM469 707l-155 -131h-99l138 131h116z" />
    <glyph glyph-name="Scommaaccent" unicode="&#x218;" horiz-adv-x="585" 
d="M285 748q141 0 239 -78l-54 -84q-82 68 -186 68q-63 0 -100.5 -29t-37.5 -86q0 -48 35.5 -72t130.5 -44q133 -29 189 -78.5t56 -134.5q0 -100 -71 -161.5t-191 -61.5q-161 0 -269 94l57 85q39 -39 97 -62t118 -23q71 0 114 31.5t43 89.5q0 48 -39 75t-133 47
q-132 29 -185.5 78t-53.5 133q0 97 66 155t175 58zM287 -51q30 0 49.5 -19.5t19.5 -49.5q0 -24 -12 -40l-78 -137h-4v242q11 4 25 4z" />
    <glyph glyph-name="scommaaccent" unicode="&#x219;" horiz-adv-x="457" 
d="M239 512q100 0 167 -55l-42 -76q-57 44 -125 44q-92 0 -92 -58q0 -29 21.5 -41.5t83.5 -27.5q88 -21 129 -58t41 -94q0 -71 -54.5 -113.5t-146.5 -42.5q-117 0 -191 61l45 78q60 -52 147 -52q101 0 101 63q0 30 -23.5 45t-83.5 29q-89 20 -128 54t-39 93q0 71 51 111
t139 40zM205 -51q30 0 49.5 -19.5t19.5 -49.5q0 -24 -12 -40l-78 -137h-4v242q11 4 25 4z" />
    <glyph glyph-name="circumflex" unicode="&#x2c6;" horiz-adv-x="350" 
d="M175 743l154 -167h-89l-65 65l-66 -65h-89z" />
    <glyph glyph-name="caron" unicode="&#x2c7;" horiz-adv-x="350" 
d="M329 737l-154 -167l-155 167h89l66 -65l65 65h89z" />
    <glyph glyph-name="breve" unicode="&#x2d8;" horiz-adv-x="345" 
d="M325 724q0 -64 -43.5 -106.5t-108.5 -42.5t-109 42.5t-44 106.5h72q0 -35 22.5 -58t58.5 -23q35 0 57.5 23t22.5 58h72z" />
    <glyph glyph-name="dotaccent" unicode="&#x2d9;" horiz-adv-x="168" 
d="M84 722q28 0 46 -18t18 -46t-18 -45.5t-46 -17.5t-46 17.5t-18 45.5t18 46t46 18z" />
    <glyph glyph-name="ring" unicode="&#x2da;" horiz-adv-x="260" 
d="M130 787q46 0 77.5 -31.5t31.5 -77.5t-31 -76.5t-78 -30.5t-78.5 30.5t-31.5 76.5q0 47 31.5 78t78.5 31zM130 731q-22 0 -37 -15.5t-15 -37.5t15 -36.5t37 -14.5t37 14.5t15 36.5t-15 37.5t-37 15.5z" />
    <glyph glyph-name="ogonek" unicode="&#x2db;" horiz-adv-x="230" 
d="M110 49l27 -49q-45 -18 -45 -64q0 -32 19.5 -49.5t49.5 -17.5q18 0 34 8l21 -57q-21 -10 -57 -10q-58 0 -95.5 33.5t-37.5 92.5q0 79 84 113z" />
    <glyph glyph-name="tilde" unicode="&#x2dc;" horiz-adv-x="368" 
d="M122 717q29 0 49.5 -12t29.5 -27t22 -27t28 -12q32 0 32 72h64q0 -68 -28.5 -103.5t-73.5 -35.5q-29 0 -49 12t-28 27t-20.5 27t-28.5 12q-34 0 -34 -72h-65q0 70 28.5 104.5t73.5 34.5z" />
    <glyph glyph-name="hungarumlaut" unicode="&#x2dd;" horiz-adv-x="389" 
d="M241 715l-107 -144h-87l107 144h87zM409 715l-106 -144h-88l107 144h87z" />
    <glyph glyph-name="uni03A9" unicode="&#x3a9;" horiz-adv-x="858" 
d="M433 749q147 0 240.5 -97t93.5 -246q0 -171 -127 -300h182v-106h-337v101q172 124 172 301q0 108 -60 174.5t-164 66.5q-103 0 -163.5 -66.5t-60.5 -174.5q0 -177 172 -301v-101h-336v106h182q-127 129 -127 300q0 149 93 246t240 97z" />
    <glyph glyph-name="pi" unicode="&#x3c0;" horiz-adv-x="711" 
d="M622 576l75 -45q-22 -59 -59 -89t-111 -30h-14l-33 -253q-5 -38 3.5 -54.5t34.5 -16.5q37 0 67 25l35 -69q-64 -49 -139 -49q-62 0 -81 36.5t-11 104.5l36 276h-115l-33 -247q-13 -94 -45 -165h-99q44 91 56 181l32 231h-27q-72 0 -128 -63l-46 68q46 45 88 64.5
t118 19.5h253q67 0 94.5 16t48.5 59z" />
    <glyph glyph-name="Wgrave" unicode="&#x1e80;" horiz-adv-x="978" 
d="M968 735l-288 -747h-4l-187 479l-187 -479h-4l-288 747h113l177 -478l187 478h4l187 -478l177 478h113zM410 887l133 -115h-108l-146 115h121z" />
    <glyph glyph-name="wgrave" unicode="&#x1e81;" horiz-adv-x="764" 
d="M753 502l-223 -512h-4l-144 298l-145 -298h-4l-223 512h110l122 -291l138 291h4l138 -291l122 291h109zM297 707l138 -131h-99l-155 131h116z" />
    <glyph glyph-name="Wacute" unicode="&#x1e82;" horiz-adv-x="978" 
d="M968 735l-288 -747h-4l-187 479l-187 -479h-4l-288 747h113l177 -478l187 478h4l187 -478l177 478h113zM679 887l-146 -115h-108l133 115h121z" />
    <glyph glyph-name="wacute" unicode="&#x1e83;" horiz-adv-x="764" 
d="M753 502l-223 -512h-4l-144 298l-145 -298h-4l-223 512h110l122 -291l138 291h4l138 -291l122 291h109zM577 707l-155 -131h-99l138 131h116z" />
    <glyph glyph-name="Wdieresis" unicode="&#x1e84;" horiz-adv-x="978" 
d="M968 735l-288 -747h-4l-187 479l-187 -479h-4l-288 747h113l177 -478l187 478h4l187 -478l177 478h113zM403 883q24 0 39.5 -15.5t15.5 -38.5t-15.5 -38.5t-39.5 -15.5q-23 0 -38.5 15.5t-15.5 38.5t15.5 38.5t38.5 15.5zM574 883q23 0 39 -15.5t16 -38.5t-16 -38.5
t-39 -15.5t-38.5 15.5t-15.5 38.5t15.5 38.5t38.5 15.5z" />
    <glyph glyph-name="wdieresis" unicode="&#x1e85;" horiz-adv-x="764" 
d="M753 502l-223 -512h-4l-144 298l-145 -298h-4l-223 512h110l122 -291l138 291h4l138 -291l122 291h109zM296 695q24 0 39.5 -15.5t15.5 -38.5t-15.5 -38.5t-39.5 -15.5q-23 0 -38.5 15.5t-15.5 38.5t15.5 38.5t38.5 15.5zM467 695q23 0 39 -15.5t16 -38.5t-16 -38.5
t-39 -15.5t-38.5 15.5t-15.5 38.5t15.5 38.5t38.5 15.5z" />
    <glyph glyph-name="Ygrave" unicode="&#x1ef2;" horiz-adv-x="660" 
d="M653 734l-272 -423v-311h-102v309l-272 425h119l204 -322l203 322h120zM251 887l133 -115h-108l-146 115h121z" />
    <glyph glyph-name="ygrave" unicode="&#x1ef3;" horiz-adv-x="552" 
d="M537 502l-367 -732h-112l165 312l-207 420h109l151 -310l151 310h110zM184 707l138 -131h-99l-155 131h116z" />
    <glyph glyph-name="endash" unicode="&#x2013;" horiz-adv-x="556" 
d="M515 304v-91h-475v91h475z" />
    <glyph glyph-name="emdash" unicode="&#x2014;" horiz-adv-x="800" 
d="M760 304v-91h-720v91h720z" />
    <glyph glyph-name="quoteleft" unicode="&#x2018;" horiz-adv-x="185" 
d="M134 778v-264q-13 -5 -24 -5q-30 0 -50 20t-20 50q0 20 13 40l77 159h4z" />
    <glyph glyph-name="quoteright" unicode="&#x2019;" horiz-adv-x="185" 
d="M75 752q30 0 49.5 -19.5t19.5 -49.5q0 -20 -12 -41l-78 -159h-4v265q11 4 25 4z" />
    <glyph glyph-name="quotesinglbase" unicode="&#x201a;" horiz-adv-x="185" 
d="M75 120q30 0 49.5 -20t19.5 -50q0 -19 -12 -40l-78 -159h-4v264q13 5 25 5z" />
    <glyph glyph-name="quotedblleft" unicode="&#x201c;" horiz-adv-x="363" 
d="M134 778v-264q-13 -5 -24 -5q-30 0 -50 20t-20 50q0 20 13 40l77 159h4zM312 778v-264q-13 -5 -24 -5q-30 0 -50 20t-20 50q0 20 13 40l77 159h4z" />
    <glyph glyph-name="quotedblright" unicode="&#x201d;" horiz-adv-x="363" 
d="M75 752q30 0 49.5 -19.5t19.5 -49.5q0 -20 -12 -41l-78 -159h-4v265q11 4 25 4zM253 752q30 0 49.5 -19.5t19.5 -49.5q0 -20 -12 -41l-78 -159h-4v265q11 4 25 4z" />
    <glyph glyph-name="quotedblbase" unicode="&#x201e;" horiz-adv-x="375" 
d="M75 120q30 0 49.5 -20t19.5 -50q0 -19 -12 -40l-78 -159h-4v264q13 5 25 5zM265 120q30 0 49.5 -20t19.5 -50q0 -19 -12 -40l-78 -159h-4v264q13 5 25 5z" />
    <glyph glyph-name="dagger" unicode="&#x2020;" horiz-adv-x="492" 
d="M294 735v-178h169v-89h-169v-468h-97v468h-168v89h168v178h97z" />
    <glyph glyph-name="daggerdbl" unicode="&#x2021;" horiz-adv-x="492" 
d="M295 735v-178h169v-89h-169v-201h168v-89h-168v-178h-97v178h-169v89h169v201h-169v89h169v178h97z" />
    <glyph glyph-name="bullet" unicode="&#x2022;" horiz-adv-x="295" 
d="M147 370q49 0 80.5 -31.5t31.5 -80.5q0 -48 -31.5 -79.5t-80.5 -31.5q-48 0 -79.5 31.5t-31.5 79.5q0 49 31.5 80.5t79.5 31.5z" />
    <glyph glyph-name="ellipsis" unicode="&#x2026;" horiz-adv-x="674" 
d="M107 128q30 0 49.5 -19t19.5 -50q0 -30 -19.5 -49.5t-49.5 -19.5t-49.5 19.5t-19.5 49.5t19.5 49.5t49.5 19.5zM337 128q30 0 49.5 -19t19.5 -50q0 -30 -19.5 -49.5t-49.5 -19.5t-49.5 19.5t-19.5 49.5t19.5 49.5t49.5 19.5zM567 128q30 0 49.5 -19t19.5 -50
q0 -30 -19.5 -49.5t-49.5 -19.5t-49.5 19.5t-19.5 49.5t19.5 49.5t49.5 19.5z" />
    <glyph glyph-name="perthousand" unicode="&#x2030;" horiz-adv-x="1280" 
d="M718 735l-479 -735h-97l479 735h97zM202 748q77 0 127.5 -53t50.5 -133q0 -79 -50.5 -131t-127.5 -52q-78 0 -128.5 51.5t-50.5 131.5t50.5 133t128.5 53zM202 675q-45 0 -74 -32t-29 -81q0 -48 29 -79.5t74 -31.5q44 0 73 31.5t29 79.5q0 49 -29 81t-73 32zM659 356
q77 0 128 -52.5t51 -132.5t-50.5 -131.5t-128.5 -51.5t-128.5 51.5t-50.5 131.5t50.5 132.5t128.5 52.5zM659 284q-45 0 -74 -32t-29 -81q0 -48 29 -79.5t74 -31.5q44 0 73.5 31.5t29.5 79.5q0 49 -29.5 81t-73.5 32zM1062 356q77 0 127.5 -52.5t50.5 -132.5t-50.5 -131.5
t-127.5 -51.5q-78 0 -128.5 51.5t-50.5 131.5t50.5 132.5t128.5 52.5zM1062 284q-45 0 -74 -32t-29 -81q0 -48 29 -79.5t74 -31.5q44 0 73 31.5t29 79.5q0 49 -29 81t-73 32z" />
    <glyph glyph-name="guilsinglleft" unicode="&#x2039;" horiz-adv-x="348" 
d="M333 458l-202 -202l202 -202h-119l-199 200v4l199 200h119z" />
    <glyph glyph-name="guilsinglright" unicode="&#x203a;" horiz-adv-x="348" 
d="M134 458l199 -200v-4l-199 -200h-119l202 202l-202 202h119z" />
    <glyph glyph-name="fraction" unicode="&#x2044;" horiz-adv-x="207" 
d="M331 734l-364 -734h-91l364 734h91z" />
    <glyph glyph-name="zero.sups" unicode="&#x2070;" horiz-adv-x="381" 
d="M196 821q73 0 114.5 -58.5t41.5 -158.5t-41.5 -159t-114.5 -59q-74 0 -116 59t-42 159t42 158.5t116 58.5zM196 755q-83 0 -83 -151q0 -152 83 -152q40 0 60.5 40.5t20.5 111.5t-20.5 111t-60.5 40z" />
    <glyph glyph-name="four.sups" unicode="&#x2074;" horiz-adv-x="366" 
d="M295 822v-304h55v-60h-55v-64h-72v65h-216v2l286 361h2zM224 639l-94 -122h94v122z" />
    <glyph glyph-name="five.sups" unicode="&#x2075;" horiz-adv-x="351" 
d="M300 813v-66h-165v-102q22 11 48 11q64 0 104.5 -35.5t40.5 -100.5q0 -59 -39.5 -96.5t-104.5 -37.5q-110 0 -145 93l63 31q15 -57 77 -57q32 0 53 20t21 51q0 30 -21 50t-56 20q-38 0 -66 -22l-49 21v220h239z" />
    <glyph glyph-name="six.sups" unicode="&#x2076;" horiz-adv-x="358" 
d="M285 813l-99 -147q60 -2 103 -41.5t43 -98.5q0 -60 -43.5 -100t-105.5 -40t-105 39.5t-43 100.5q0 48 30 86l136 201h84zM183 604q-32 0 -53.5 -22t-21.5 -56t21.5 -55.5t53.5 -21.5q33 0 54.5 21.5t21.5 55.5t-21.5 56t-54.5 22z" />
    <glyph glyph-name="seven.sups" unicode="&#x2077;" horiz-adv-x="352" 
d="M338 813v-4l-217 -415h-81l189 351h-196v68h305z" />
    <glyph glyph-name="eight.sups" unicode="&#x2078;" horiz-adv-x="358" 
d="M181 821q55 0 93.5 -33.5t38.5 -84.5q0 -56 -51 -87q68 -36 68 -101q0 -56 -43.5 -92.5t-105.5 -36.5q-61 0 -104 37t-43 92q0 32 18 58.5t49 41.5q-50 32 -50 88q0 51 38 84.5t92 33.5zM181 580q-32 0 -53.5 -19t-21.5 -48t21.5 -47.5t53.5 -18.5q33 0 55 18.5t22 47.5
t-22 48t-55 19zM181 760q-27 0 -45.5 -17.5t-18.5 -42.5q0 -27 18.5 -43.5t45.5 -16.5q28 0 46.5 16.5t18.5 43.5q0 26 -18.5 43t-46.5 17z" />
    <glyph glyph-name="nine.sups" unicode="&#x2079;" horiz-adv-x="358" 
d="M184 820q62 0 105 -39.5t43 -99.5q0 -50 -30 -86l-136 -201h-84l99 147q-61 1 -103.5 41t-42.5 99q0 60 43.5 99.5t105.5 39.5zM184 758q-33 0 -54.5 -21.5t-21.5 -55.5q0 -35 21.5 -56.5t54.5 -21.5q32 0 53.5 21.5t21.5 56.5q0 34 -21.5 55.5t-53.5 21.5z" />
    <glyph glyph-name="n.sups" unicode="&#x207f;" horiz-adv-x="423" 
d="M241 748q63 0 98 -41.5t35 -112.5v-206h-81v202q0 37 -19.5 59.5t-52.5 22.5q-48 0 -83 -49v-235h-80v353h72l3 -40q41 47 108 47z" />
    <glyph glyph-name="Euro" unicode="&#x20ac;" horiz-adv-x="659" 
d="M426 315v-67h-211q21 -81 71 -126.5t120 -45.5q94 0 162 75l61 -71q-89 -94 -223 -94q-113 0 -192 69.5t-105 192.5h-74v67h64q-2 17 -2 52q0 19 2 55h-64v67h74q27 122 105 190.5t190 68.5q135 0 221 -93l-61 -71q-63 74 -160 74q-69 0 -118.5 -44.5t-70.5 -124.5h211
v-67h-223q-2 -36 -2 -55q0 -20 2 -52h223z" />
    <glyph glyph-name="afii61289" unicode="&#x2113;" horiz-adv-x="584" 
d="M332 750q72 0 114 -41t42 -111q0 -91 -59.5 -173.5t-164.5 -177.5v-81q0 -46 17 -69.5t61 -23.5q20 0 38.5 7.5t34.5 24t24 26t23 31.5l14 23l57 -45q-34 -58 -87.5 -104.5t-124.5 -46.5q-144 0 -144 141v49q-75 -66 -88 -76l-47 68q81 68 131 115v290q0 88 38 131
t121 43zM332 676q-75 0 -75 -92v-240q150 140 150 250q0 38 -18.5 60t-56.5 22z" />
    <glyph glyph-name="trademark" unicode="&#x2122;" horiz-adv-x="845" 
d="M354 735v-71h-129v-305h-74v305h-129v71h332zM807 742v-383h-73v170l-123 -173h-4l-122 173v-170h-73v383h2l195 -265l196 265h2z" />
    <glyph glyph-name="Omega" unicode="&#x2126;" horiz-adv-x="858" 
d="M433 749q147 0 240.5 -97t93.5 -246q0 -171 -127 -300h182v-106h-337v101q172 124 172 301q0 108 -60 174.5t-164 66.5q-103 0 -163.5 -66.5t-60.5 -174.5q0 -177 172 -301v-101h-336v106h182q-127 129 -127 300q0 149 93 246t240 97z" />
    <glyph glyph-name="estimated" unicode="&#x212e;" horiz-adv-x="591" 
d="M308 508q-81 0 -127 -39q-32 -19 -32 -57v-106h299v109q0 25 -5.5 39t-22.5 23q-45 31 -112 31zM308 536q109 0 178.5 -68.5t69.5 -189.5h-407v-165q0 -40 31 -58q53 -39 128 -39q138 0 222 127l23 -14q-89 -141 -245 -141q-117 0 -195 76.5t-78 197.5t78.5 197.5
t194.5 76.5z" />
    <glyph glyph-name="partialdiff" unicode="&#x2202;" horiz-adv-x="538" 
d="M251 748q254 0 254 -428q0 -137 -34 -203q-62 -125 -201 -125q-102 0 -169.5 66.5t-67.5 169.5q0 104 65.5 170.5t165.5 66.5q91 0 142 -72q-7 262 -162 262q-84 0 -132 -74l-67 62q76 105 206 105zM271 373q-60 0 -99.5 -41t-39.5 -104q0 -62 39.5 -102.5t99.5 -40.5
q59 0 98 40.5t39 102.5q0 63 -39 104t-98 41z" />
    <glyph glyph-name="uni2206" unicode="&#x2206;" horiz-adv-x="721" 
d="M361 646l325 -646h-651zM361 469l-197 -392h393z" />
    <glyph glyph-name="product" unicode="&#x220f;" horiz-adv-x="706" 
d="M671 740v-92h-126v-749h-91v749h-202v-749h-92v749h-125v92h636z" />
    <glyph glyph-name="summation" unicode="&#x2211;" horiz-adv-x="610" 
d="M563 740v-98h-389l183 -259l-190 -285h408v-98h-540v67l208 314l-205 292v67h525z" />
    <glyph glyph-name="minus" unicode="&#x2212;" horiz-adv-x="486" 
d="M446 395v-90h-407v90h407z" />
    <glyph glyph-name="radical" unicode="&#x221a;" horiz-adv-x="697" 
d="M585 695l82 -35l-296 -733l-173 334l-120 -71l-45 72l214 127l121 -247z" />
    <glyph glyph-name="infinity" unicode="&#x221e;" horiz-adv-x="749" 
d="M544 468q77 0 125 -52t48 -129t-48 -129.5t-125 -52.5q-35 0 -69.5 17t-52 32t-44.5 42l-19 20l-17 -20q-74 -76 -146 -76t-114.5 47.5t-42.5 118.5t42.5 119t114.5 48q42 0 74.5 -20t70.5 -59l18 -20l13 16q29 32 50 50t53.5 33t68.5 15zM545 384q-33 0 -59 -20t-60 -60
l-15 -19l18 -20q24 -26 34 -36.5t34.5 -25t47.5 -14.5q40 0 64.5 28.5t24.5 69.5t-24.5 69t-64.5 28zM194 372q-35 0 -56 -25t-21 -61t21 -60.5t56 -24.5q51 0 100 63l16 21l-17 20q-55 67 -99 67z" />
    <glyph glyph-name="integral" unicode="&#x222b;" horiz-adv-x="434" 
d="M297 750q65 0 115 -24l-19 -76q-36 18 -74 18q-61 0 -61 -85v-603q0 -90 -32 -130t-99 -40t-117 24l19 76q32 -18 76 -18q65 0 65 88v603q0 89 31 128t96 39z" />
    <glyph glyph-name="approxequal" unicode="&#x2248;" horiz-adv-x="588" 
d="M190 326q45 0 80.5 -22t66 -43.5t61.5 -21.5q74 0 105 79l59 -45q-23 -58 -65.5 -91.5t-98.5 -33.5q-36 0 -66 14t-47 30t-42 30t-53 14q-74 0 -105 -79l-59 45q23 58 65.5 91t98.5 33zM190 548q45 0 80.5 -22t66 -43.5t61.5 -21.5q74 0 105 79l59 -45
q-23 -58 -65.5 -91.5t-98.5 -33.5q-36 0 -66 13.5t-47 30t-42 30t-53 13.5q-75 0 -105 -79l-59 45q23 58 65.5 91.5t98.5 33.5z" />
    <glyph glyph-name="notequal" unicode="&#x2260;" horiz-adv-x="486" 
d="M446 275v-90h-221l-36 -98h-86l36 98h-100v90h133l54 148h-187v91h221l44 118h86l-44 -118h100v-91h-134l-54 -148h188z" />
    <glyph glyph-name="lessequal" unicode="&#x2264;" horiz-adv-x="354" 
d="M334 599l-189 -168l189 -167h-128l-186 165v4l186 166h128zM334 209v-90h-314v90h314z" />
    <glyph glyph-name="greaterequal" unicode="&#x2265;" horiz-adv-x="354" 
d="M148 599l186 -166v-4l-186 -165h-128l189 167l-189 168h128zM334 209v-90h-314v90h314z" />
    <glyph glyph-name="lozenge" unicode="&#x25ca;" horiz-adv-x="569" 
d="M321 738l222 -402l-222 -401h-61l-223 401l223 402h61zM291 597l-153 -261l153 -262l152 262z" />
    <glyph glyph-name="commaaccent" unicode="&#xf6c3;" horiz-adv-x="158" 
d="M59 -51q30 0 49.5 -19.5t19.5 -49.5q0 -24 -12 -40l-78 -137h-4v242q11 4 25 4z" />
    <glyph glyph-name="CR" horiz-adv-x="250" 
 />
    <glyph glyph-name="germandbls.cap" horiz-adv-x="660" 
d="M331 748q149 0 253 -116l-129 -195q33 -10 61.5 -26.5t54.5 -42t41 -64t15 -86.5q0 -101 -68.5 -166t-178.5 -65q-88 0 -141 32l36 86q42 -24 105 -24q57 0 97.5 38.5t40.5 99.5q0 75 -59 112t-152 37l-2 5l155 238q-45 42 -129 42q-73 0 -116.5 -42.5t-43.5 -119.5v-491
h-100v491q0 116 73.5 186.5t186.5 70.5z" />
    <glyph glyph-name="endash_guilsinglright" horiz-adv-x="662" 
d="M332 539l289 -262l-289 -262l-47 57l184 164h-429v81h430l-185 165z" />
    <glyph glyph-name="emdash_guilsinglright" horiz-adv-x="987" 
d="M657 539l290 -262l-290 -262l-47 57l184 164h-754v81h755l-185 165z" />
    <glyph glyph-name="guilsinglleft_endash" horiz-adv-x="662" 
d="M331 539l46 -57l-185 -165h429v-81h-428l184 -164l-46 -57l-291 262z" />
    <glyph glyph-name="guilsinglleft_emdash" horiz-adv-x="987" 
d="M331 539l46 -57l-185 -165h755v-81h-754l184 -164l-46 -57l-291 262z" />
    <glyph glyph-name="at.cap" horiz-adv-x="859" 
d="M429 762q177 0 288 -108.5t111 -281.5q0 -102 -45.5 -163t-125.5 -61q-77 0 -102 60l-2 5q-52 -65 -145 -65q-84 0 -137 61.5t-53 155.5q0 95 53 156.5t137 61.5q93 0 138 -57l3 49h76v-310q0 -44 41 -44q39 0 61 41.5t22 109.5q0 138 -88.5 226.5t-231.5 88.5
q-140 0 -229.5 -90.5t-89.5 -229.5q0 -140 88 -229.5t226 -89.5q69 0 129 24l23 -71q-70 -28 -152 -28q-173 0 -283 110.5t-110 283.5q0 172 111.5 283.5t286.5 111.5zM427 510q-55 0 -90 -40t-35 -105t35 -104.5t90 -39.5q70 0 115 65v159q-47 65 -115 65z" />
    <glyph glyph-name="grave.cap" horiz-adv-x="295" 
d="M147 887l133 -115h-108l-146 115h121z" />
    <glyph glyph-name="acute.cap" horiz-adv-x="295" 
d="M269 887l-146 -115h-108l133 115h121z" />
    <glyph glyph-name="circumflex.cap" horiz-adv-x="359" 
d="M179 916l159 -145h-91l-68 61l-68 -61h-91z" />
    <glyph glyph-name="caron.cap" horiz-adv-x="359" 
d="M338 907l-159 -144l-159 144h91l68 -60l68 60h91z" />
    <glyph glyph-name="tilde.cap" horiz-adv-x="368" 
d="M122 915q29 0 49.5 -12t29.5 -27t22 -27t28 -12q32 0 32 72h64q0 -68 -28.5 -103.5t-73.5 -35.5q-29 0 -49 12t-28 27t-20.5 27t-28.5 12q-34 0 -34 -72h-65q0 70 28.5 104.5t73.5 34.5z" />
    <glyph glyph-name="dieresis.cap" horiz-adv-x="320" 
d="M74 883q24 0 39.5 -15.5t15.5 -38.5t-15.5 -38.5t-39.5 -15.5q-23 0 -38.5 15.5t-15.5 38.5t15.5 38.5t38.5 15.5zM245 883q23 0 39 -15.5t16 -38.5t-16 -38.5t-39 -15.5t-38.5 15.5t-15.5 38.5t15.5 38.5t38.5 15.5z" />
    <glyph glyph-name="macron.cap" horiz-adv-x="300" 
d="M280 857v-69h-260v69h260z" />
    <glyph glyph-name="breve.cap" horiz-adv-x="345" 
d="M325 917q0 -63 -43.5 -104t-108.5 -41q-66 0 -109.5 41t-43.5 104h71q0 -32 23 -55t59 -23t58.5 23t22.5 55h71z" />
    <glyph glyph-name="ring.cap" horiz-adv-x="260" 
d="M130 986q47 0 78 -31t31 -77q0 -47 -31 -77.5t-78 -30.5t-78.5 30.5t-31.5 77.5q0 46 31.5 77t78.5 31zM130 931q-22 0 -37 -15.5t-15 -37.5q0 -23 15 -37.5t37 -14.5t37 14.5t15 37.5q0 22 -15 37.5t-37 15.5z" />
    <glyph glyph-name="hungarumlaut.cap" horiz-adv-x="389" 
d="M242 893l-98 -119h-85l96 119h87zM404 893l-98 -119h-85l96 119h87z" />
    <glyph glyph-name="dotaccent.cap" horiz-adv-x="160" 
d="M79 890q26 0 43 -17t17 -43t-17 -42.5t-43 -16.5q-25 0 -42 16.5t-17 42.5t16.5 43t42.5 17z" />
    <glyph glyph-name="parenleft.cap" horiz-adv-x="291" 
d="M197 775l74 -54q-59 -72 -95 -154.5t-36 -199.5t36 -199.5t95 -154.5l-74 -54q-150 180 -150 408q0 226 150 408z" />
    <glyph glyph-name="parenright.cap" horiz-adv-x="291" 
d="M94 775q150 -180 150 -408q0 -231 -150 -408l-74 54q60 71 95.5 154t35.5 200t-35.5 200t-95.5 154z" />
    <glyph glyph-name="bracketleft.cap" horiz-adv-x="308" 
d="M283 777v-80h-134v-660h134v-80h-228v820h228z" />
    <glyph glyph-name="bracketright.cap" horiz-adv-x="314" 
d="M259 777v-820h-234v80h139v660h-139v80h234z" />
    <glyph glyph-name="braceleft.cap" horiz-adv-x="335" 
d="M310 777v-80q-57 0 -88.5 -33.5t-19.5 -101.5l9 -65q13 -50 -4 -83t-53 -47q36 -14 53 -47t4 -83l-9 -65q-12 -68 19.5 -101.5t88.5 -33.5v-80q-114 0 -171.5 61t-28.5 172l9 63q11 44 -15.5 72.5t-77.5 39.5v4q51 11 77.5 39.5t15.5 72.5l-9 63q-29 111 28.5 172
t171.5 61z" />
    <glyph glyph-name="braceright.cap" horiz-adv-x="335" 
d="M25 777q114 0 172 -61t29 -172l-10 -63q-11 -44 15.5 -72.5t77.5 -39.5v-4q-51 -11 -77.5 -39.5t-15.5 -72.5l10 -63q29 -111 -29 -172t-172 -61v80q57 0 88.5 33.5t19.5 101.5l-9 65q-13 50 4 83t53 47q-36 14 -53 47t-4 83l9 65q12 68 -19.5 101.5t-88.5 33.5v80z" />
    <glyph glyph-name="guilsinglleft.cap" horiz-adv-x="348" 
d="M333 576l-202 -222l202 -222h-119l-199 220v4l199 220h119z" />
    <glyph glyph-name="guilsinglright.cap" horiz-adv-x="348" 
d="M134 576l199 -220v-4l-199 -220h-119l202 222l-202 222h119z" />
    <glyph glyph-name="guillemotleft.cap" horiz-adv-x="498" 
d="M255 576l-145 -222l145 -222h-93l-147 220v4l147 220h93zM483 576l-145 -222l145 -222h-92l-147 220v4l147 220h92z" />
    <glyph glyph-name="guillemotright.cap" horiz-adv-x="498" 
d="M107 576l148 -220v-4l-148 -220h-92l145 222l-145 222h92zM336 576l147 -220v-4l-147 -220h-92l144 222l-144 222h92z" />
    <glyph glyph-name="exclamdown.cap" horiz-adv-x="262" 
d="M83 0v530h98v-530h-98zM132 620q-28 0 -46.5 18.5t-18.5 45.5q0 28 18.5 46t46.5 18q27 0 45 -18t18 -46q0 -27 -18 -45.5t-45 -18.5z" />
    <glyph glyph-name="questiondown.cap" horiz-adv-x="491" 
d="M253 -13q-95 0 -155.5 57t-60.5 144q0 48 17 84.5t41.5 59t49 43t41.5 47t17 59.5v49h99v-61q0 -41 -16.5 -73.5t-40.5 -54t-48 -42t-40.5 -48.5t-16.5 -62q0 -52 32 -82t82 -30q100 0 120 104l97 -17q-38 -177 -218 -177zM252 620q-28 0 -46 18.5t-18 45.5q0 28 18 46
t46 18t46 -18t18 -46q0 -27 -18 -45.5t-46 -18.5z" />
    <glyph glyph-name="endash.cap" horiz-adv-x="556" 
d="M515 402v-91h-475v91h475z" />
    <glyph glyph-name="periodcentered.cap" horiz-adv-x="192" 
d="M96 420q28 0 47 -19t19 -47t-19 -46.5t-47 -18.5t-47 18.5t-19 46.5t19 47t47 19z" />
    <glyph glyph-name="emdash.cap" horiz-adv-x="800" 
d="M760 402v-91h-720v91h720z" />
    <glyph glyph-name="hyphen.cap" horiz-adv-x="437" 
d="M396 402v-91h-356v91h356z" />
    <glyph glyph-name="zero.dnom" horiz-adv-x="390" 
d="M196 427q73 0 114.5 -58.5t41.5 -158.5t-41.5 -159t-114.5 -59q-74 0 -116 59t-42 159t42 158.5t116 58.5zM196 361q-83 0 -83 -151q0 -152 83 -152q40 0 60.5 40.5t20.5 111.5t-20.5 111t-60.5 40z" />
    <glyph glyph-name="one.dnom" horiz-adv-x="266" 
d="M203 427v-427h-74v308l-71 -45l-32 67l175 97h2z" />
    <glyph glyph-name="two.dnom" horiz-adv-x="354" 
d="M174 427q63 0 101.5 -36.5t38.5 -93.5q0 -58 -53 -124l-89 -107h146v-66h-273v4l154 207q40 48 40 87q0 29 -18 46t-47 17q-58 0 -70 -65l-67 15q23 116 137 116z" />
    <glyph glyph-name="three.dnom" horiz-adv-x="350" 
d="M175 427q59 0 96.5 -35.5t37.5 -89.5q0 -60 -55 -86q67 -27 67 -95q0 -57 -39 -93t-104 -36q-115 0 -145 109l66 16q19 -58 79 -58q31 0 50 18t19 48q0 27 -20.5 45.5t-53.5 18.5h-47v57h49q26 1 43.5 15.5t17.5 41.5q0 26 -18 42t-45 16q-51 0 -68 -53l-64 28
q30 91 134 91z" />
    <glyph glyph-name="four.dnom" horiz-adv-x="375" 
d="M295 428v-304h55v-60h-55v-64h-72v65h-216v2l286 361h2zM224 245l-94 -122h94v122z" />
    <glyph glyph-name="five.dnom" horiz-adv-x="360" 
d="M300 419v-66h-165v-102q22 11 48 11q64 0 104.5 -35.5t40.5 -100.5q0 -59 -39.5 -96.5t-104.5 -37.5q-110 0 -145 93l63 31q15 -57 77 -57q32 0 53 20t21 51q0 30 -21 50t-56 20q-38 0 -66 -22l-49 21v220h239z" />
    <glyph glyph-name="six.dnom" horiz-adv-x="367" 
d="M285 419l-99 -147q60 -2 103 -41.5t43 -98.5q0 -60 -43.5 -100t-105.5 -40t-105 39.5t-43 100.5q0 48 30 86l136 201h84zM183 210q-32 0 -53.5 -22t-21.5 -56t21.5 -55.5t53.5 -21.5q33 0 54.5 21.5t21.5 55.5t-21.5 56t-54.5 22z" />
    <glyph glyph-name="seven.dnom" horiz-adv-x="361" 
d="M338 419v-4l-217 -415h-81l189 351h-196v68h305z" />
    <glyph glyph-name="eight.dnom" horiz-adv-x="367" 
d="M181 427q55 0 93.5 -33.5t38.5 -84.5q0 -56 -51 -87q68 -36 68 -101q0 -56 -43.5 -92.5t-105.5 -36.5q-61 0 -104 37t-43 92q0 32 18 58.5t49 41.5q-50 32 -50 88q0 51 38 84.5t92 33.5zM181 186q-32 0 -53.5 -19t-21.5 -48t21.5 -47.5t53.5 -18.5q33 0 55 18.5t22 47.5
t-22 48t-55 19zM181 366q-27 0 -45.5 -17.5t-18.5 -42.5q0 -27 18.5 -43.5t45.5 -16.5q28 0 46.5 16.5t18.5 43.5q0 26 -18.5 43t-46.5 17z" />
    <glyph glyph-name="nine.dnom" horiz-adv-x="367" 
d="M184 426q62 0 105 -39.5t43 -99.5q0 -50 -30 -86l-136 -201h-84l99 147q-61 1 -103.5 41t-42.5 99q0 60 43.5 99.5t105.5 39.5zM184 364q-33 0 -54.5 -21.5t-21.5 -55.5q0 -35 21.5 -56.5t54.5 -21.5q32 0 53.5 21.5t21.5 56.5q0 34 -21.5 55.5t-53.5 21.5z" />
    <glyph glyph-name="zero.numr" horiz-adv-x="381" 
d="M196 741q73 0 114.5 -58.5t41.5 -158.5t-41.5 -159t-114.5 -59q-74 0 -116 59t-42 159t42 158.5t116 58.5zM196 675q-83 0 -83 -151q0 -152 83 -152q40 0 60.5 40.5t20.5 111.5t-20.5 111t-60.5 40z" />
    <glyph glyph-name="one.numr" horiz-adv-x="257" 
d="M203 741v-427h-74v308l-71 -45l-32 67l175 97h2z" />
    <glyph glyph-name="two.numr" horiz-adv-x="345" 
d="M174 741q63 0 101.5 -36.5t38.5 -93.5q0 -58 -53 -124l-89 -107h146v-66h-273v4l154 207q40 48 40 87q0 29 -18 46t-47 17q-58 0 -70 -65l-67 15q23 116 137 116z" />
    <glyph glyph-name="three.numr" horiz-adv-x="340" 
d="M175 741q59 0 96.5 -35.5t37.5 -89.5q0 -60 -55 -86q67 -27 67 -95q0 -57 -39 -93t-104 -36q-115 0 -145 109l66 16q19 -58 79 -58q31 0 50 18t19 48q0 27 -20.5 45.5t-53.5 18.5h-47v57h49q26 1 43.5 15.5t17.5 41.5q0 26 -18 42t-45 16q-51 0 -68 -53l-64 28
q30 91 134 91z" />
    <glyph glyph-name="four.numr" horiz-adv-x="366" 
d="M295 742v-304h55v-60h-55v-64h-72v65h-216v2l286 361h2zM224 559l-94 -122h94v122z" />
    <glyph glyph-name="five.numr" horiz-adv-x="351" 
d="M300 733v-66h-165v-102q22 11 48 11q64 0 104.5 -35.5t40.5 -100.5q0 -59 -39.5 -96.5t-104.5 -37.5q-110 0 -145 93l63 31q15 -57 77 -57q32 0 53 20t21 51q0 30 -21 50t-56 20q-38 0 -66 -22l-49 21v220h239z" />
    <glyph glyph-name="six.numr" horiz-adv-x="358" 
d="M285 733l-99 -147q60 -2 103 -41.5t43 -98.5q0 -60 -43.5 -100t-105.5 -40t-105 39.5t-43 100.5q0 48 30 86l136 201h84zM183 524q-32 0 -53.5 -22t-21.5 -56t21.5 -55.5t53.5 -21.5q33 0 54.5 21.5t21.5 55.5t-21.5 56t-54.5 22z" />
    <glyph glyph-name="seven.numr" horiz-adv-x="352" 
d="M338 733v-4l-217 -415h-81l189 351h-196v68h305z" />
    <glyph glyph-name="eight.numr" horiz-adv-x="358" 
d="M181 741q55 0 93.5 -33.5t38.5 -84.5q0 -56 -51 -87q68 -36 68 -101q0 -56 -43.5 -92.5t-105.5 -36.5q-61 0 -104 37t-43 92q0 32 18 58.5t49 41.5q-50 32 -50 88q0 51 38 84.5t92 33.5zM181 500q-32 0 -53.5 -19t-21.5 -48t21.5 -47.5t53.5 -18.5q33 0 55 18.5t22 47.5
t-22 48t-55 19zM181 680q-27 0 -45.5 -17.5t-18.5 -42.5q0 -27 18.5 -43.5t45.5 -16.5q28 0 46.5 16.5t18.5 43.5q0 26 -18.5 43t-46.5 17z" />
    <glyph glyph-name="nine.numr" horiz-adv-x="358" 
d="M184 740q62 0 105 -39.5t43 -99.5q0 -50 -30 -86l-136 -201h-84l99 147q-61 1 -103.5 41t-42.5 99q0 60 43.5 99.5t105.5 39.5zM184 678q-33 0 -54.5 -21.5t-21.5 -55.5q0 -35 21.5 -56.5t54.5 -21.5q32 0 53.5 21.5t21.5 56.5q0 34 -21.5 55.5t-53.5 21.5z" />
    <glyph glyph-name="zero.subs" horiz-adv-x="381" 
d="M196 327q73 0 114.5 -58.5t41.5 -158.5t-41.5 -159t-114.5 -59q-74 0 -116 59t-42 159t42 158.5t116 58.5zM196 261q-83 0 -83 -151q0 -152 83 -152q40 0 60.5 40.5t20.5 111.5t-20.5 111t-60.5 40z" />
    <glyph glyph-name="one.subs" horiz-adv-x="257" 
d="M203 327v-427h-74v308l-71 -45l-32 67l175 97h2z" />
    <glyph glyph-name="two.subs" horiz-adv-x="345" 
d="M174 327q63 0 101.5 -36.5t38.5 -93.5q0 -58 -53 -124l-89 -107h146v-66h-273v4l154 207q40 48 40 87q0 29 -18 46t-47 17q-58 0 -70 -65l-67 15q23 116 137 116z" />
    <glyph glyph-name="three.subs" horiz-adv-x="340" 
d="M175 327q59 0 96.5 -35.5t37.5 -89.5q0 -60 -55 -86q67 -27 67 -95q0 -57 -39 -93t-104 -36q-115 0 -145 109l66 16q19 -58 79 -58q31 0 50 18t19 48q0 27 -20.5 45.5t-53.5 18.5h-47v57h49q26 1 43.5 15.5t17.5 41.5q0 26 -18 42t-45 16q-51 0 -68 -53l-64 28
q30 91 134 91z" />
    <glyph glyph-name="four.subs" horiz-adv-x="366" 
d="M295 328v-304h55v-60h-55v-64h-72v65h-216v2l286 361h2zM224 145l-94 -122h94v122z" />
    <glyph glyph-name="five.subs" horiz-adv-x="351" 
d="M300 319v-66h-165v-102q22 11 48 11q64 0 104.5 -35.5t40.5 -100.5q0 -59 -39.5 -96.5t-104.5 -37.5q-110 0 -145 93l63 31q15 -57 77 -57q32 0 53 20t21 51q0 30 -21 50t-56 20q-38 0 -66 -22l-49 21v220h239z" />
    <glyph glyph-name="six.subs" horiz-adv-x="358" 
d="M285 319l-99 -147q60 -2 103 -41.5t43 -98.5q0 -60 -43.5 -100t-105.5 -40t-105 39.5t-43 100.5q0 48 30 86l136 201h84zM183 110q-32 0 -53.5 -22t-21.5 -56t21.5 -55.5t53.5 -21.5q33 0 54.5 21.5t21.5 55.5t-21.5 56t-54.5 22z" />
    <glyph glyph-name="seven.subs" horiz-adv-x="352" 
d="M338 319v-4l-217 -415h-81l189 351h-196v68h305z" />
    <glyph glyph-name="eight.subs" horiz-adv-x="358" 
d="M181 327q55 0 93.5 -33.5t38.5 -84.5q0 -56 -51 -87q68 -36 68 -101q0 -56 -43.5 -92.5t-105.5 -36.5q-61 0 -104 37t-43 92q0 32 18 58.5t49 41.5q-50 32 -50 88q0 51 38 84.5t92 33.5zM181 86q-32 0 -53.5 -19t-21.5 -48t21.5 -47.5t53.5 -18.5q33 0 55 18.5t22 47.5
t-22 48t-55 19zM181 266q-27 0 -45.5 -17.5t-18.5 -42.5q0 -27 18.5 -43.5t45.5 -16.5q28 0 46.5 16.5t18.5 43.5q0 26 -18.5 43t-46.5 17z" />
    <glyph glyph-name="nine.subs" horiz-adv-x="358" 
d="M184 326q62 0 105 -39.5t43 -99.5q0 -50 -30 -86l-136 -201h-84l99 147q-61 1 -103.5 41t-42.5 99q0 60 43.5 99.5t105.5 39.5zM184 264q-33 0 -54.5 -21.5t-21.5 -55.5q0 -35 21.5 -56.5t54.5 -21.5q32 0 53.5 21.5t21.5 56.5q0 34 -21.5 55.5t-53.5 21.5z" />
    <glyph glyph-name="zero.lnum" horiz-adv-x="600" 
d="M300 748q122 0 189.5 -102t67.5 -278q0 -177 -67.5 -279t-189.5 -102t-189.5 102t-67.5 279q0 176 67.5 278t189.5 102zM300 659q-78 0 -117.5 -77.5t-39.5 -213.5q0 -137 39.5 -214.5t117.5 -77.5t117.5 77.5t39.5 214.5q0 136 -39.5 213.5t-117.5 77.5z" />
    <glyph glyph-name="one.lnum" horiz-adv-x="600" 
d="M383 748v-657h138v-91h-382v91h145v478l-167 -96l-47 85l309 190h4z" />
    <glyph glyph-name="two.lnum" horiz-adv-x="600" 
d="M291 748q100 0 162 -61t62 -158q0 -65 -22 -116t-70 -112l-168 -211h269v-90h-441v6l262 348q39 52 54.5 90t15.5 87q0 59 -34.5 93t-89.5 34q-107 0 -131 -123l-90 21q38 192 221 192z" />
    <glyph glyph-name="three.lnum" horiz-adv-x="600" 
d="M294 748q96 0 155.5 -58.5t59.5 -150.5q0 -111 -98 -156q56 -22 89 -66.5t33 -106.5q0 -100 -63.5 -161.5t-167.5 -61.5q-182 0 -239 182l90 24q19 -57 53.5 -86.5t94.5 -29.5q59 0 95.5 37t36.5 98q0 57 -39.5 94t-102.5 37h-81v79h82q49 1 83.5 31t34.5 85t-33 87.5
t-84 32.5q-96 0 -131 -105l-86 37q56 158 218 158z" />
    <glyph glyph-name="four.lnum" horiz-adv-x="600" 
d="M462 741v-513h99v-90h-99v-138h-99v138h-331v4l425 599h5zM364 457l-163 -230h163v230z" />
    <glyph glyph-name="five.lnum" horiz-adv-x="600" 
d="M495 735v-90h-286v-217q44 24 98 24q104 0 169 -62t65 -171q0 -100 -64 -166t-169 -66q-176 0 -236 159l86 40q34 -109 144 -109q61 0 100 41.5t39 104.5q0 64 -39.5 104.5t-104.5 40.5q-70 0 -124 -45l-63 27v385h385z" />
    <glyph glyph-name="six.lnum" horiz-adv-x="600" 
d="M299 471q100 0 170.5 -69.5t70.5 -173.5t-70 -172.5t-171 -68.5t-171 68.5t-70 172.5q0 89 52 154l231 353h117l-173 -265q3 0 7.5 0.5t6.5 0.5zM299 382q-60 0 -100 -43t-40 -111q0 -67 40 -109.5t100 -42.5q59 0 100 43t41 109q0 67 -41 110.5t-100 43.5z" />
    <glyph glyph-name="seven.lnum" horiz-adv-x="600" 
d="M564 735v-6l-370 -729h-108l332 644h-351v91h497z" />
    <glyph glyph-name="eight.lnum" horiz-adv-x="600" 
d="M300 748q88 0 149 -56t61 -142q0 -52 -24.5 -94t-66.5 -66q56 -26 89.5 -74.5t33.5 -107.5q0 -95 -70.5 -158t-171.5 -63t-171 63t-70 158q0 60 33 108.5t88 72.5q-41 24 -65.5 66t-24.5 95q0 86 61 142t149 56zM300 339q-59 0 -99.5 -38t-40.5 -95q0 -56 40.5 -93.5
t99.5 -37.5t100 37.5t41 93.5q0 57 -41 95t-100 38zM300 660q-49 0 -83 -33t-34 -81q0 -51 34 -85t83 -34t83 34t34 85q0 48 -34 81t-83 33z" />
    <glyph glyph-name="nine.lnum" horiz-adv-x="600" 
d="M300 748q101 0 171 -68.5t70 -172.5q0 -89 -53 -155l-230 -352h-117l172 264h-13q-100 0 -170.5 69.5t-70.5 173.5t70 172.5t171 68.5zM300 659q-59 0 -100 -43t-41 -109q0 -67 41 -110.5t100 -43.5q60 0 100 43t40 111q0 67 -40 109.5t-100 42.5z" />
    <glyph glyph-name="zero.tnum" horiz-adv-x="590" 
d="M295 570q111 0 184 -82.5t73 -208.5q0 -125 -73 -207t-184 -82q-112 0 -185 82t-73 207t73 208t185 83zM295 483q-69 0 -114 -57.5t-45 -146.5t45 -145.5t114 -56.5t113.5 56.5t44.5 145.5t-44.5 146.5t-113.5 57.5z" />
    <glyph glyph-name="one.tnum" horiz-adv-x="374" 
d="M294 570v-570h-99v389l-131 -81l-44 89l270 173h4z" />
    <glyph glyph-name="two.tnum" horiz-adv-x="530" 
d="M266 570q93 0 152 -56t59 -140q0 -68 -28 -114t-82 -93l-89 -77h217v-90h-443v6l221 204q33 30 43.5 40.5t29 33t24.5 42t6 44.5q0 53 -31.5 81.5t-83.5 28.5q-75 0 -110 -75l-82 41q57 124 197 124z" />
    <glyph glyph-name="three.tnum" horiz-adv-x="524" 
d="M264 570q96 0 156 -57t60 -146q0 -108 -99 -151q57 -21 89.5 -64.5t32.5 -104.5q0 -97 -63.5 -156.5t-167.5 -59.5q-181 0 -238 177l90 23q38 -112 148 -112q59 0 95.5 35.5t36.5 94.5q0 56 -40 91.5t-103 35.5h-80v78h82q49 0 83.5 29t34.5 83q0 53 -33 84.5t-85 31.5
q-97 0 -130 -102l-87 36q56 154 218 154z" />
    <glyph glyph-name="four.tnum" horiz-adv-x="557" 
d="M437 570v-498h99v-87h-99v-134h-99v134h-331v4l425 581h5zM339 294l-163 -223h163v223z" />
    <glyph glyph-name="five.tnum" horiz-adv-x="538" 
d="M463 559v-87h-285v-210q46 23 97 23q104 0 169 -60.5t65 -166.5q0 -97 -63.5 -161t-169.5 -64q-175 0 -235 155l85 39q35 -106 144 -106q61 0 100 40t39 102q0 61 -39.5 100.5t-103.5 39.5q-69 0 -125 -43l-63 26v373h385z" />
    <glyph glyph-name="six.tnum" horiz-adv-x="547" 
d="M272 457q101 0 171.5 -67.5t70.5 -168.5t-70.5 -167.5t-171.5 -66.5t-170.5 66.5t-69.5 167.5q0 86 50 147l233 345h117l-173 -256h13zM272 370q-59 0 -99 -42t-40 -107t40 -106.5t99 -41.5q60 0 101 41.5t41 106.5t-41 107t-101 42z" />
    <glyph glyph-name="seven.tnum" horiz-adv-x="538" 
d="M524 560v-6l-370 -707h-108l330 624h-349v89h497z" />
    <glyph glyph-name="eight.tnum" horiz-adv-x="547" 
d="M270 726q88 0 149 -54.5t61 -137.5q0 -51 -24.5 -92t-66.5 -64q56 -25 89.5 -72t33.5 -104q0 -92 -70.5 -153.5t-171.5 -61.5q-100 0 -170.5 61t-70.5 154q0 58 33 104.5t88 70.5q-41 23 -65.5 64.5t-24.5 92.5q0 83 61 137.5t149 54.5zM270 329q-59 0 -99.5 -37
t-40.5 -92q0 -54 40.5 -90.5t99.5 -36.5t100 36.5t41 90.5q0 55 -41 92t-100 37zM270 640q-49 0 -83 -31.5t-34 -78.5q0 -50 34 -83t83 -33t83 33t34 83q0 47 -34 78.5t-83 31.5z" />
    <glyph glyph-name="nine.tnum" horiz-adv-x="547" 
d="M274 570q101 0 170.5 -66.5t69.5 -167.5q0 -74 -39 -130h1l-244 -362h-118l174 257h-14q-101 0 -171.5 67t-70.5 168t70.5 167.5t171.5 66.5zM274 484q-60 0 -100.5 -41.5t-40.5 -106.5t40.5 -107t100.5 -42q59 0 99.5 42t40.5 107t-40.5 106.5t-99.5 41.5z" />
    <glyph glyph-name="a.sups" horiz-adv-x="430" 
d="M184 748q73 0 113 -48l3 41h73v-353h-73l-3 41q-40 -48 -113 -48q-69 0 -113.5 51.5t-44.5 131.5t44.5 132t113.5 52zM204 677q-43 0 -70 -31t-27 -82t27 -82t70 -31q53 0 88 52v123q-35 51 -88 51z" />
    <glyph glyph-name="b.sups" horiz-adv-x="430" 
d="M138 920v-214q38 42 108 42q69 0 113.5 -52t44.5 -132t-44.5 -131.5t-113.5 -51.5q-73 0 -113 48l-3 -41h-72v532h80zM226 677q-53 0 -88 -51v-123q35 -52 88 -52q43 0 70 31t27 82t-27 82t-70 31z" />
    <glyph glyph-name="c.sups" horiz-adv-x="370" 
d="M206 748q95 0 148 -79l-59 -44q-34 53 -89 53q-47 0 -73 -31.5t-26 -82.5q0 -50 26.5 -81.5t73.5 -31.5q57 0 90 53l59 -44q-53 -79 -149 -79q-81 0 -131 51.5t-50 131.5t49.5 132t130.5 52z" />
    <glyph glyph-name="d.sups" horiz-adv-x="430" 
d="M373 920v-532h-73l-3 41q-40 -48 -113 -48q-69 0 -113.5 51.5t-44.5 131.5t44.5 132t113.5 52q70 0 108 -42v214h81zM204 677q-43 0 -70 -31t-27 -82t27 -82t70 -31q53 0 88 52v123q-35 51 -88 51z" />
    <glyph glyph-name="e.sups" horiz-adv-x="392" 
d="M201 748q78 0 120.5 -51.5t42.5 -129.5v-28h-257q6 -90 101 -90q58 0 92 43l55 -47q-55 -64 -148 -64q-83 0 -132 51t-49 132q0 80 48.5 132t126.5 52zM198 682q-38 0 -63 -23t-28 -59h178q-3 36 -26 59t-61 23z" />
    <glyph glyph-name="f.sups" horiz-adv-x="271" 
d="M210 920q49 0 79 -24l-30 -64q-18 18 -44 18q-24 0 -38 -17t-14 -44v-48h89v-69h-89v-284h-80v284h-64v69h64v44q0 59 34.5 97t92.5 38z" />
    <glyph glyph-name="g.sups" horiz-adv-x="431" 
d="M184 748q74 0 113 -47l4 40h72v-342q0 -83 -50.5 -131t-134.5 -48q-102 0 -165 75l53 52q45 -57 112 -57q48 0 76 29.5t28 77.5v33q-39 -41 -108 -41t-113.5 51t-44.5 129t44 128.5t114 50.5zM204 680q-43 0 -70 -30.5t-27 -80.5t27 -80.5t70 -30.5q53 0 88 50v121
q-36 51 -88 51z" />
    <glyph glyph-name="h.sups" horiz-adv-x="423" 
d="M138 920v-218q38 46 103 46q63 0 98 -41.5t35 -112.5v-206h-81v202q0 37 -19.5 59.5t-52.5 22.5q-48 0 -83 -49v-235h-80v532h80z" />
    <glyph glyph-name="i.sups" horiz-adv-x="195" 
d="M137 741v-353h-79v353h79zM98 904q21 0 35 -14.5t14 -36.5t-14 -36t-35 -14q-22 0 -36 14t-14 36t14 36.5t36 14.5z" />
    <glyph glyph-name="j.sups" horiz-adv-x="205" 
d="M148 741v-386q0 -64 -43.5 -99.5t-114.5 -35.5v70q35 0 56.5 16.5t21.5 42.5v392h80zM108 904q22 0 36 -14.5t14 -36.5t-14 -36t-36 -14t-36 14t-14 36t14 36.5t36 14.5z" />
    <glyph glyph-name="k.sups" horiz-adv-x="399" 
d="M138 920v-384l139 205h98l-108 -151l122 -202h-93l-79 134l-96 -134h-63v532h80z" />
    <glyph glyph-name="l.sups" horiz-adv-x="195" 
d="M138 920v-532h-80v532h80z" />
    <glyph glyph-name="m.sups" horiz-adv-x="647" 
d="M241 748q73 0 107 -61q44 61 122 61q61 0 94.5 -41.5t33.5 -112.5v-206h-80v202q0 37 -18.5 59.5t-50.5 22.5q-48 0 -82 -49q1 -7 1 -21v-214h-80v202q0 37 -18.5 59.5t-50.5 22.5q-48 0 -81 -48v-236h-80v353h72l3 -40q38 47 108 47z" />
    <glyph glyph-name="o.sups" horiz-adv-x="417" 
d="M209 748q78 0 130 -52.5t52 -131.5t-52 -131t-130 -52q-80 0 -131.5 51.5t-51.5 131.5q0 79 51.5 131.5t131.5 52.5zM209 677q-45 0 -73.5 -32t-28.5 -81t28.5 -81t73.5 -32q44 0 72.5 32t28.5 81t-28.5 81t-72.5 32z" />
    <glyph glyph-name="p.sups" horiz-adv-x="430" 
d="M246 748q69 0 113.5 -51.5t44.5 -131.5t-44.5 -132t-113.5 -52q-70 0 -108 42v-196h-80v514h72l3 -41q40 48 113 48zM226 678q-53 0 -88 -52v-123q35 -51 88 -51q43 0 70 31t27 82t-27 82t-70 31z" />
    <glyph glyph-name="q.sups" horiz-adv-x="430" 
d="M184 748q73 0 113 -48l3 41h73v-514h-81v196q-38 -42 -108 -42q-69 0 -113.5 52t-44.5 132t44.5 131.5t113.5 51.5zM204 678q-43 0 -70 -31t-27 -82t27 -82t70 -31q53 0 88 51v123q-35 52 -88 52z" />
    <glyph glyph-name="r.sups" horiz-adv-x="253" 
d="M238 748v-80h-8q-56 0 -92 -52v-228h-80v353h71l5 -49q35 56 104 56z" />
    <glyph glyph-name="s.sups" horiz-adv-x="335" 
d="M177 748q72 0 122 -39l-35 -63q-36 31 -87 31q-58 0 -58 -39q0 -16 14.5 -23t61.5 -18q57 -13 83.5 -38t26.5 -65q0 -51 -39.5 -82t-105.5 -31q-82 0 -135 43l35 63q43 -36 101 -36q64 0 64 42q0 18 -14 25t-59 18q-59 14 -86 37.5t-27 63.5q0 51 37 81t101 30z" />
    <glyph glyph-name="t.sups" horiz-adv-x="293" 
d="M158 859v-118h107v-69h-107v-161q0 -27 15.5 -42.5t41.5 -15.5q30 0 48 11l21 -63q-29 -20 -76 -20q-61 0 -95.5 34t-34.5 96v161h-67v69h67v118h80z" />
    <glyph glyph-name="u.sups" horiz-adv-x="418" 
d="M361 741v-353h-73l-3 38q-39 -45 -109 -45q-61 0 -94 41t-33 110v209h80v-204q0 -36 18 -58t50 -22q51 0 83 47v237h81z" />
    <glyph glyph-name="v.sups" horiz-adv-x="397" 
d="M386 741l-186 -360h-3l-185 360h89l98 -198l97 198h90z" />
    <glyph glyph-name="w.sups" horiz-adv-x="548" 
d="M536 741l-161 -360h-3l-98 196l-99 -196h-2l-161 360h89l79 -190l93 190h2l92 -190l79 190h90z" />
    <glyph glyph-name="x.sups" horiz-adv-x="368" 
d="M350 741l-112 -175l118 -178h-95l-78 120l-78 -120h-94l117 178l-111 175h93l73 -117l74 117h93z" />
    <glyph glyph-name="y.sups" horiz-adv-x="405" 
d="M389 741l-263 -514h-91l125 231l-145 283h90l97 -198l98 198h89z" />
    <glyph glyph-name="z.sups" horiz-adv-x="334" 
d="M312 741v-3l-165 -282h164v-68h-290v3l164 281h-154v69h281z" />
    <glyph glyph-name="G.smcp_I.smcp" horiz-adv-x="670" 
d="M335 779q130 0 217 -89.5t87 -223.5q0 -135 -86.5 -223.5t-217.5 -88.5q-132 0 -217.5 88t-85.5 224q0 134 86 223.5t217 89.5zM335 717q-103 0 -170 -72t-67 -179q0 -108 67 -179.5t170 -71.5t170 71.5t67 179.5q0 107 -67.5 179t-169.5 72z" />
    <glyph glyph-name="zero.slash" horiz-adv-x="589" 
d="M295 748q122 0 189.5 -102t67.5 -278q0 -177 -67.5 -279t-189.5 -102t-190 102t-68 279q0 176 68 278t190 102zM295 663q-78 0 -117.5 -78.5t-39.5 -216.5q0 -103 20 -170l230 421q-38 44 -93 44zM451 368q0 98 -21 167l-229 -421q37 -43 94 -43q77 0 116.5 79t39.5 218z
" />
    </font>
</defs>
</svg>
